<svg xmlns="http://www.w3.org/2000/svg" width="1920" height="1348" fill="none"><g clip-path="url(#a)"><path fill="#9D7DFE" d="M0 0h1920v1348H0z"/><path fill="#fff" d="M272.109 289.938h40.313V309h-63.281V195.25h22.968zm86.641 20.624q-17.031 0-26.562-10.156t-9.532-29.062v-6.719q0-20 8.75-30.859t25.078-10.86q15.938 0 23.985 10.235 8.046 10.156 8.203 30.156v10.859h-43.984q.468 9.376 4.14 13.75 3.672 4.297 11.328 4.297 11.094 0 18.516-7.578l8.672 13.359q-4.063 5.625-11.797 9.141-7.734 3.438-16.797 3.437m-13.906-51.874h22.109v-2.032q-.156-7.578-2.5-11.484t-8.125-3.906-8.437 4.14q-2.579 4.141-3.047 13.282m82.031-55v20.781h11.328v16.64h-11.328v41.953q0 5.001 1.328 6.876 1.406 1.875 5.313 1.874 3.203 0 5.234-.546l-.156 17.187q-5.625 2.109-12.188 2.109-21.406 0-21.64-24.531v-44.922H395v-16.64h9.766v-20.781zm44.297 20.781.625 7.812q7.422-9.375 19.609-9.375 12.656 0 17.891 11.406 7.266-11.406 20.703-11.406 22.188 0 22.734 30.703V309h-22.109v-53.984q0-7.344-2.031-10.469t-6.875-3.125q-6.172 0-9.219 7.578l.156 2.656V309h-22.109v-53.828q0-7.265-1.953-10.469-1.953-3.28-6.953-3.281-5.703 0-9.063 6.172V309h-22.109v-84.531zm132.109 86.093q-17.031 0-26.562-10.156t-9.531-29.062v-6.719q0-20 8.75-30.859t25.078-10.86q15.937 0 23.984 10.235 8.047 10.156 8.203 30.156v10.859h-43.984q.468 9.376 4.14 13.75 3.672 4.297 11.329 4.297 11.093 0 18.515-7.578l8.672 13.359q-4.062 5.625-11.797 9.141-7.734 3.438-16.797 3.437m-13.906-51.874h22.109v-2.032q-.156-7.578-2.5-11.484t-8.125-3.906-8.437 4.14q-2.578 4.141-3.047 13.282M685.859 309q-.937-1.954-1.875-6.562-5.937 8.124-16.093 8.124-10.625 0-17.657-7.031-6.953-7.03-6.953-18.203 0-13.281 8.438-20.547 8.515-7.264 24.453-7.422h6.719v-6.797q0-5.703-1.953-8.046-1.954-2.344-5.704-2.344-8.28 0-8.281 9.687h-22.109q0-11.718 8.75-19.297 8.828-7.656 22.265-7.656 13.907 0 21.485 7.266Q705 237.36 705 250.797v39.765q.156 10.938 3.125 17.11V309zm-13.047-15.781q3.673 0 6.25-1.485 2.578-1.484 3.829-3.515v-17.578h-5.313q-5.625 0-8.906 3.593-3.203 3.594-3.203 9.61 0 9.375 7.343 9.375m85.626-6.875q0-2.813-2.735-5.156-2.656-2.423-11.953-6.485-13.673-5.547-18.828-11.484-5.078-5.938-5.078-14.766 0-11.093 7.968-18.281 8.047-7.266 21.25-7.266 13.906 0 22.266 7.188t8.36 19.297h-22.11q0-10.313-8.594-10.313-3.514 0-5.781 2.188-2.265 2.187-2.265 6.093 0 2.813 2.5 5 2.499 2.11 11.796 6.094 13.516 5 19.063 11.172 5.625 6.094 5.625 15.859 0 11.328-8.516 18.204-8.515 6.874-22.344 6.874-9.296 0-16.406-3.593-7.109-3.672-11.172-10.157-3.984-6.483-3.984-13.984h21.016q.156 5.781 2.656 8.672 2.578 2.89 8.359 2.891 8.907 0 8.907-8.047m63.281-9.922-5.938 6.64V309h-22.109V189h22.109v64.844l2.735-4.063 15.312-25.312h26.328l-24.531 34.843L862.5 309h-25.312zM290.312 438h-7.539l-28.632-43.828V438h-7.539v-56.875h7.539l28.711 44.023v-44.023h7.46zm29.727.781q-8.594 0-13.984-5.625-5.391-5.664-5.391-15.117v-1.328q0-6.29 2.383-11.211 2.421-4.96 6.719-7.734 4.335-2.813 9.375-2.813 8.241 0 12.812 5.43t4.57 15.547v3.008h-28.632q.156 6.25 3.632 10.117 3.516 3.828 8.907 3.828 3.828 0 6.484-1.563t4.648-4.14l4.415 3.437q-5.313 8.164-15.938 8.164m-.898-37.89q-4.375 0-7.344 3.203-2.968 3.164-3.672 8.906h21.172v-.547q-.312-5.508-2.969-8.515-2.657-3.048-7.187-3.047m39.961 10.273 9.375-15.43h8.437l-13.828 20.899L377.344 438h-8.36l-9.765-15.82-9.766 15.82h-8.398l14.257-21.367-13.828-20.899h8.36zm35.312-25.664v10.234h7.891v5.586h-7.891v26.211q0 2.54 1.055 3.828 1.055 1.25 3.593 1.25 1.251 0 3.438-.468V438q-2.851.781-5.547.781-4.843 0-7.305-2.929-2.46-2.93-2.46-8.321V401.32h-7.696v-5.586h7.696V385.5zm44.883 46.367h26.953V438h-34.492v-56.875h7.539zm51.914 6.914q-8.594 0-13.984-5.625-5.391-5.664-5.391-15.117v-1.328q0-6.29 2.383-11.211 2.421-4.96 6.719-7.734 4.335-2.813 9.374-2.813 8.243 0 12.813 5.43t4.57 15.547v3.008h-28.633q.158 6.25 3.633 10.117 3.516 3.828 8.907 3.828 3.828 0 6.484-1.563t4.648-4.14l4.414 3.437q-5.312 8.164-15.937 8.164m-.899-37.89q-4.374 0-7.343 3.203-2.969 3.164-3.672 8.906h21.172v-.547q-.313-5.508-2.969-8.515-2.657-3.048-7.188-3.047m39.18 27.304 10.469-32.461h7.383L532.188 438h-5.508l-15.313-42.266h7.383zm41.797 10.586q-8.594 0-13.984-5.625-5.391-5.664-5.391-15.117v-1.328q0-6.29 2.383-11.211 2.421-4.96 6.719-7.734 4.335-2.813 9.375-2.813 8.241 0 12.812 5.43t4.57 15.547v3.008h-28.632q.156 6.25 3.632 10.117 3.516 3.828 8.907 3.828 3.828 0 6.484-1.563t4.648-4.14l4.415 3.437q-5.313 8.164-15.938 8.164m-.898-37.89q-4.375 0-7.344 3.203-2.968 3.164-3.672 8.906h21.172v-.547q-.312-5.508-2.969-8.515-2.657-3.048-7.187-3.047M604.023 438h-7.226v-60h7.226zm44.844-17.93 1.094 7.5 1.601-6.758 11.25-39.687h6.329l10.976 39.687 1.563 6.876 1.211-7.657 8.828-38.906h7.539L685.469 438h-6.836l-11.719-41.445-.898-4.336-.899 4.336L652.969 438h-6.836l-13.75-56.875h7.5zm73.906 18.711q-8.593 0-13.984-5.625-5.391-5.664-5.391-15.117v-1.328q0-6.29 2.383-11.211 2.422-4.96 6.719-7.734 4.336-2.813 9.375-2.813 8.242 0 12.813 5.43t4.57 15.547v3.008h-28.633q.156 6.25 3.633 10.117 3.516 3.828 8.906 3.828 3.829 0 6.484-1.563 2.657-1.562 4.649-4.14l4.414 3.437q-5.312 8.164-15.938 8.164m-.898-37.89q-4.376 0-7.344 3.203-2.968 3.164-3.672 8.906h21.172v-.547q-.312-5.508-2.969-8.515-2.655-3.048-7.187-3.047m43.32 37.89q-8.593 0-13.984-5.625-5.391-5.664-5.391-15.117v-1.328q0-6.29 2.383-11.211 2.422-4.96 6.719-7.734 4.336-2.813 9.375-2.813 8.242 0 12.812 5.43t4.571 15.547v3.008h-28.633q.156 6.25 3.633 10.117 3.515 3.828 8.906 3.828 3.828 0 6.484-1.563t4.649-4.14l4.414 3.437q-5.312 8.164-15.938 8.164m-.898-37.89q-4.375 0-7.344 3.203-2.969 3.164-3.672 8.906h21.172v-.547q-.312-5.508-2.969-8.515-2.655-3.048-7.187-3.047m37.578 17.539-4.531 4.726V438h-7.227v-60h7.227v36.289l3.867-4.648 13.164-13.907h8.789l-16.445 17.657L825.078 438h-8.476zm87.461-31.133h-18.281V438h-7.461v-50.703h-18.242v-6.172h43.984zm1.484 29.18q0-6.212 2.422-11.172 2.461-4.962 6.797-7.657 4.375-2.694 9.961-2.695 8.633 0 13.945 5.977 5.352 5.976 5.352 15.898v.508q0 6.172-2.383 11.094-2.343 4.882-6.758 7.617-4.375 2.734-10.078 2.734-8.593 0-13.945-5.976-5.313-5.977-5.313-15.821zm7.266.859q0 7.03 3.242 11.289 3.282 4.258 8.75 4.258 5.508 0 8.75-4.297 3.243-4.336 3.242-12.109 0-6.954-3.32-11.25-3.281-4.336-8.75-4.336-5.351 0-8.633 4.257-3.28 4.258-3.281 12.188m38.555-.82q0-9.883 4.57-15.704 4.57-5.859 12.109-5.859 7.735 0 12.071 5.469l.351-4.688h6.602v41.25q0 8.204-4.883 12.93-4.843 4.727-13.047 4.727-4.57 0-8.945-1.953t-6.68-5.352l3.75-4.336q4.649 5.742 11.367 5.742 5.274 0 8.203-2.969 2.97-2.968 2.969-8.359v-3.633q-4.336 5-11.836 5-7.422 0-12.031-5.976-4.57-5.977-4.57-16.289m7.265.82q0 7.149 2.93 11.25 2.93 4.062 8.203 4.062 6.836 0 10.039-6.21v-19.297q-3.32-6.055-9.961-6.055-5.273 0-8.242 4.102-2.969 4.1-2.969 12.148m56.914 21.445q-8.593 0-13.984-5.625-5.391-5.664-5.391-15.117v-1.328q0-6.29 2.383-11.211 2.422-4.96 6.719-7.734 4.336-2.813 9.375-2.813 8.248 0 12.808 5.43c3.05 3.62 4.57 8.802 4.57 15.547v3.008h-28.628q.156 6.25 3.633 10.117 3.515 3.828 8.905 3.828c2.55 0 4.71-.521 6.49-1.563 1.77-1.041 3.32-2.422 4.64-4.14l4.42 3.437c-3.54 5.443-8.86 8.164-15.94 8.164m-.898-37.89q-4.375 0-7.344 3.203-2.969 3.164-3.672 8.906h21.174v-.547q-.315-5.508-2.97-8.515c-1.77-2.032-4.17-3.047-7.188-3.047m35.588-15.391v10.234h7.89v5.586h-7.89v26.211q0 2.54 1.05 3.828c.71.834 1.9 1.25 3.6 1.25.83 0 1.98-.156 3.43-.468V438c-1.9.521-3.75.781-5.54.781-3.23 0-5.67-.976-7.31-2.929q-2.46-2.93-2.46-8.321V401.32h-7.69v-5.586h7.69V385.5zm23.59 15.352c3.2-3.933 7.37-5.899 12.5-5.899 8.93 0 13.44 5.039 13.52 15.117V438h-7.23v-27.969c-.03-3.047-.73-5.299-2.11-6.758-1.35-1.458-3.48-2.187-6.37-2.187-2.34 0-4.4.625-6.17 1.875q-2.655 1.875-4.14 4.922V438h-7.22v-60h7.22zm54.38 37.929c-5.73 0-10.39-1.875-13.99-5.625-3.59-3.776-5.39-8.815-5.39-15.117v-1.328c0-4.193.8-7.93 2.38-11.211q2.43-4.96 6.72-7.734c2.89-1.875 6.02-2.813 9.38-2.813q8.235 0 12.81 5.43c3.05 3.62 4.57 8.802 4.57 15.547v3.008h-28.63q.15 6.25 3.63 10.117 3.51 3.828 8.91 3.828 3.825 0 6.48-1.563t4.65-4.14l4.41 3.437q-5.31 8.164-15.93 8.164m-.9-37.89q-4.38 0-7.35 3.203c-1.97 2.109-3.2 5.078-3.67 8.906h21.17v-.547c-.2-3.672-1.19-6.51-2.96-8.515-1.78-2.032-4.17-3.047-7.19-3.047m46.21 1.328a21.6 21.6 0 0 0-3.56-.274c-4.74 0-7.95 2.019-9.64 6.055v30h-7.23v-42.266h7.03l.12 4.883q3.555-5.664 10.08-5.664c1.4 0 2.47.182 3.2.547z"/><g filter="url(#b)"><g clip-path="url(#c)"><rect width="1440" height="820" x="240" y="620" fill="#F8F8F8" rx="40"/><path fill="#835AFD" d="M240 620h676v820H240z"/><path fill="url(#d)" d="M411.889 1227.98c28.749-16.77 52.516-1.09 56.72 35.1.732 6.27-4.022 14.54-9.826 17.92l-93.787 54.76c-5.805 3.38-10.558.64-9.827-6.49 4.205-41 28.017-84.51 56.72-101.29" opacity=".5"/><path fill="url(#e)" d="M379.85 1181c0 25 14.443 36.79 32.268 26.37s32.268-39.08 32.268-64.08-14.443-36.79-32.268-26.37S379.85 1156 379.85 1181" opacity=".5"/><path fill="url(#f)" d="M393.424 1212.99c28.749-16.77 52.516-1.1 56.721 35.1.731 6.26-4.022 14.54-9.827 17.92l-93.787 54.75c-5.805 3.39-10.558.64-9.827-6.49 4.205-40.99 27.972-84.5 56.72-101.28" opacity=".07"/><path fill="url(#g)" d="M361.385 1166.01c0 25 14.443 36.79 32.268 26.37s32.268-39.08 32.268-64.08-14.443-36.79-32.268-26.37-32.268 39.08-32.268 64.08" opacity=".07"/><path fill="url(#h)" d="M299.272 1356.76c0-1.6.854-3.08 2.242-3.88l72.25-41.72c2.989-1.72 6.726.44 6.726 3.89v34.55l-81.218 46.9z" opacity=".2"/><path fill="#E559F9" d="M363.99 1331c0 3.48 2.057 5.12 4.617 3.66s4.616-5.49 4.616-8.96-2.057-5.12-4.616-3.66c-2.56 1.47-4.617 5.49-4.617 8.96"/><path fill="#FEFEFE" d="m359.694 1329.49-24.406 14.13v5.07l24.452-14.12zM359.694 1339.69l-52.012 30.02v5.17l52.012-30.03z" opacity=".15"/><path fill="url(#i)" d="M464.268 1307.86c0-1.6.855-3.08 2.243-3.88l72.25-41.68c2.989-1.72 6.725.43 6.725 3.89v34.56l-81.218 46.89z" opacity=".2"/><path fill="#835AFD" d="M528.986 1282.1c0 3.47 2.057 5.12 4.616 3.65 2.56-1.46 4.617-5.48 4.617-8.95 0-3.48-2.057-5.12-4.617-3.66s-4.616 5.48-4.616 8.96"/><path fill="#FEFEFE" d="m524.827 1280.82-14.717 8.5v5.16l14.717-8.5zM524.69 1291.01l-52.013 30.03v5.16l52.013-30.03z" opacity=".15"/><path fill="url(#j)" d="M432.73 1377.7c0-1.61.855-3.09 2.243-3.89l144.918-83.62c2.99-1.73 6.727.43 6.725 3.88l-.041 72.44-140.315 80.99-10.839 16.06c-.825 1.22-2.734.64-2.733-.84z" opacity=".3"/><path fill="#FEFEFE" d="M472.266 1385.89 573 1327.76v7.04l-100.688 58.13z" opacity=".15"/><path fill="url(#k)" d="m323.953 1246.49-12.706 24.96c-1.737 3.43-1.463 6.85.639 7.68 2.103.82 5.211-1.33 6.948-4.76l.137-.32v27.7c0 3.15 2.194 4.43 4.936 2.88 2.742-1.6 4.936-5.39 4.936-8.55v-27.69l.137.13c1.737 1.42 4.891-.04 6.947-3.29 2.103-3.24 2.377-6.99.64-8.41z" opacity=".2"/><path fill="url(#l)" d="M742.272 683.763c0-1.601.854-3.082 2.242-3.883l72.25-41.715c2.989-1.726 6.726.431 6.726 3.883v34.556l-81.218 46.894z" opacity=".2"/><path fill="#E559F9" d="M806.99 658.002c0 3.474 2.057 5.119 4.617 3.656s4.616-5.484 4.616-8.958c0-3.473-2.057-5.119-4.616-3.656-2.56 1.462-4.617 5.484-4.617 8.958"/><path fill="#FEFEFE" d="m802.694 656.494-24.406 14.123v5.073l24.452-14.123zM802.694 666.686l-52.012 30.028v5.165l52.012-30.028z" opacity=".15"/><path fill="url(#m)" d="M907.268 634.86c0-1.603.855-3.083 2.243-3.884l72.25-41.675c2.989-1.724 6.725.433 6.725 3.884v34.56l-81.218 46.894z" opacity=".2"/><path fill="#FEFEFE" d="m967.827 607.818-14.717 8.501v5.165l14.717-8.502zM967.69 618.01l-52.013 30.028v5.165l52.013-30.028z" opacity=".15"/><path fill="url(#n)" d="M854.931 686.843c.002-3.452-3.736-5.612-6.726-3.885l-144.919 83.671a4.49 4.49 0 0 0-2.242 3.881L701 848.136l140.315-80.99 11.617 3.794a1.494 1.494 0 0 0 1.958-1.42z" opacity=".3"/><path fill="#E559F9" d="M823.673 724c0 6.628 3.885 9.69 8.729 6.902 4.845-2.788 8.73-10.421 8.73-17.002 0-6.628-3.885-9.69-8.73-6.902-4.799 2.788-8.729 10.421-8.729 17.002"/><path fill="#FEFEFE" d="m815.354 721.441-33.73 19.47v7.039l33.73-19.47zM815.354 735.564 714.62 793.701v7.038l100.734-58.137zM815.354 749.687l-78.75 45.476v7.039l78.75-45.477z" opacity=".15"/><path fill="url(#o)" d="M875.73 704.696a4.48 4.48 0 0 1 2.243-3.882l144.917-83.628c2.99-1.726 6.73.434 6.73 3.886l-.05 72.443-140.31 80.989-10.839 16.057c-.825 1.223-2.734.638-2.733-.837z" opacity=".3"/><path fill="#835AFD" d="M906.993 710.929c0 6.627-3.93 14.214-8.729 17.002-4.845 2.788-8.73-.32-8.73-6.947s3.931-14.215 8.73-17.003c4.799-2.742 8.729.366 8.729 6.948"/><path fill="#FEFEFE" d="m915.312 698.817 33.73-19.471v7.039l-33.73 19.47zM915.266 712.894 1016 654.757v7.039l-100.688 58.137zM915.266 727.017l78.75-45.477v7.039l-78.75 45.476z" opacity=".15"/><path fill="url(#p)" d="M965.542 752.063c-2.743 1.554-4.936 5.394-4.936 8.593v13.94l-9.233 5.302c-2.742 1.554-4.936 5.393-4.936 8.547 0 3.153 2.194 4.433 4.936 2.879l9.233-5.347v13.94c0 3.153 2.193 4.433 4.936 2.879s4.936-5.393 4.936-8.547v-13.94l9.232-5.302c2.743-1.554 4.936-5.393 4.936-8.547 0-3.153-2.193-4.433-4.936-2.879l-9.232 5.302v-13.94c.046-3.2-2.194-4.479-4.936-2.88" opacity=".2"/><path fill="#fff" d="M322.412 903.728v4.932h-6.696V929h-6.156v-20.34h-6.696v-4.932zm12.234 25.56q-2.952 0-5.328-1.26-2.34-1.26-3.708-3.6-1.332-2.34-1.332-5.472 0-3.096 1.368-5.436 1.368-2.376 3.744-3.636t5.328-1.26 5.328 1.26 3.744 3.636q1.368 2.34 1.368 5.436t-1.404 5.472a9.26 9.26 0 0 1-3.78 3.6q-2.376 1.26-5.328 1.26m0-5.328q1.764 0 2.988-1.296 1.26-1.296 1.26-3.708t-1.224-3.708q-1.188-1.296-2.952-1.296-1.8 0-2.988 1.296-1.188 1.26-1.188 3.708 0 2.412 1.152 3.708 1.188 1.296 2.952 1.296m12.553-5.04q0-3.096 1.152-5.436 1.188-2.34 3.204-3.6t4.5-1.26q1.98 0 3.6.828 1.656.828 2.592 2.232v-9.324h6.156V929h-6.156v-2.88q-.864 1.44-2.484 2.304-1.584.864-3.708.864-2.484 0-4.5-1.26-2.016-1.296-3.204-3.636-1.152-2.376-1.152-5.472m15.048.036q0-2.304-1.296-3.636-1.26-1.332-3.096-1.332t-3.132 1.332q-1.26 1.296-1.26 3.6t1.26 3.672q1.296 1.332 3.132 1.332t3.096-1.332q1.296-1.332 1.296-3.636m9.386-.036q0-3.096 1.152-5.436 1.188-2.34 3.204-3.6t4.5-1.26q2.124 0 3.708.864 1.62.864 2.484 2.268v-2.844h6.156V929h-6.156v-2.844q-.9 1.404-2.52 2.268-1.584.864-3.708.864-2.448 0-4.464-1.26-2.016-1.296-3.204-3.636-1.152-2.376-1.152-5.472m15.048.036q0-2.304-1.296-3.636-1.26-1.332-3.096-1.332t-3.132 1.332q-1.26 1.296-1.26 3.6t1.26 3.672q1.296 1.332 3.132 1.332t3.096-1.332q1.296-1.332 1.296-3.636m24.395-7.2q.9-1.404 2.484-2.268t3.708-.864q2.484 0 4.5 1.26t3.168 3.6q1.188 2.34 1.188 5.436t-1.188 5.472q-1.152 2.34-3.168 3.636-2.016 1.26-4.5 1.26-2.088 0-3.708-.864-1.584-.864-2.484-2.232v12.384h-6.156v-29.664h6.156zm8.784 7.164q0-2.304-1.296-3.6-1.26-1.332-3.132-1.332-1.836 0-3.132 1.332-1.26 1.332-1.26 3.636t1.26 3.636q1.296 1.332 3.132 1.332t3.132-1.332q1.296-1.368 1.296-3.672m28.429-.288q0 .864-.108 1.8h-13.932q.144 1.872 1.188 2.88 1.08.972 2.628.972 2.304 0 3.204-1.944h6.552a8.9 8.9 0 0 1-1.836 3.564q-1.296 1.584-3.276 2.484t-4.428.9q-2.952 0-5.256-1.26t-3.6-3.6-1.296-5.472 1.26-5.472q1.296-2.34 3.6-3.6t5.292-1.26q2.916 0 5.184 1.224a8.67 8.67 0 0 1 3.528 3.492q1.296 2.268 1.296 5.292m-6.3-1.62q0-1.584-1.08-2.52t-2.7-.936q-1.548 0-2.628.9-1.044.9-1.296 2.556zm15.704-4.752q1.08-1.656 2.7-2.592 1.62-.972 3.6-.972v6.516h-1.692q-2.304 0-3.456 1.008-1.152.972-1.152 3.456V929h-6.156v-20.088h6.156zm16.874-3.636q2.124 0 3.708.864 1.62.864 2.484 2.268v-2.844h6.156v20.052q0 2.772-1.116 5.004-1.08 2.268-3.348 3.6-2.232 1.332-5.58 1.332-4.464 0-7.236-2.124-2.772-2.088-3.168-5.688h6.084q.288 1.152 1.368 1.8 1.08.684 2.664.684 1.908 0 3.024-1.116 1.152-1.08 1.152-3.492v-2.844q-.9 1.404-2.484 2.304-1.584.864-3.708.864-2.484 0-4.5-1.26-2.016-1.296-3.204-3.636-1.152-2.376-1.152-5.472t1.152-5.436q1.188-2.34 3.204-3.6t4.5-1.26m6.192 10.332q0-2.304-1.296-3.636-1.26-1.332-3.096-1.332t-3.132 1.332q-1.26 1.296-1.26 3.6t1.26 3.672q1.296 1.332 3.132 1.332t3.096-1.332q1.296-1.332 1.296-3.636m30.446-10.044V929h-6.156v-2.736q-.936 1.332-2.556 2.16-1.584.792-3.528.792-2.304 0-4.068-1.008-1.764-1.044-2.736-2.988t-.972-4.572v-11.736h6.12v10.908q0 2.016 1.044 3.132t2.808 1.116q1.8 0 2.844-1.116t1.044-3.132v-10.908zm16.662-.216q3.528 0 5.616 2.304 2.124 2.268 2.124 6.264V929h-6.12v-10.908q0-2.016-1.044-3.132t-2.808-1.116-2.808 1.116-1.044 3.132V929h-6.156v-20.088h6.156v2.664q.936-1.332 2.52-2.088 1.584-.792 3.564-.792m23.213 15.084V929h-3.132q-3.348 0-5.22-1.62-1.872-1.656-1.872-5.364v-7.992h-2.448v-5.112h2.448v-4.896h6.156v4.896h4.032v5.112h-4.032v8.064q0 .9.432 1.296t1.44.396zm2.205-4.86q0-3.096 1.152-5.436 1.188-2.34 3.204-3.6t4.5-1.26q2.124 0 3.708.864 1.62.864 2.484 2.268v-2.844h6.156V929h-6.156v-2.844q-.9 1.404-2.52 2.268-1.584.864-3.708.864-2.448 0-4.464-1.26-2.016-1.296-3.204-3.636-1.152-2.376-1.152-5.472m15.048.036q0-2.304-1.296-3.636-1.26-1.332-3.096-1.332t-3.132 1.332q-1.26 1.296-1.26 3.6t1.26 3.672q1.296 1.332 3.132 1.332t3.096-1.332q1.296-1.332 1.296-3.636m29.435 4.824V929h-3.132q-3.348 0-5.22-1.62-1.872-1.656-1.872-5.364v-7.992h-2.448v-5.112h2.448v-4.896h6.156v4.896h4.032v5.112H593.7v8.064q0 .9.432 1.296t1.44.396zm22.365-5.148q0 .864-.108 1.8h-13.932q.144 1.872 1.188 2.88 1.08.972 2.628.972 2.304 0 3.204-1.944h6.552a8.9 8.9 0 0 1-1.836 3.564q-1.296 1.584-3.276 2.484t-4.428.9q-2.952 0-5.256-1.26t-3.6-3.6-1.296-5.472 1.26-5.472q1.296-2.34 3.6-3.6t5.292-1.26q2.916 0 5.184 1.224a8.67 8.67 0 0 1 3.528 3.492q1.296 2.268 1.296 5.292m-6.3-1.62q0-1.584-1.08-2.52t-2.7-.936q-1.548 0-2.628.9-1.044.9-1.296 2.556zm35.179-8.316q3.744 0 5.94 2.268 2.232 2.268 2.232 6.3V929h-6.12v-10.908q0-1.944-1.044-2.988-1.008-1.08-2.808-1.08t-2.844 1.08q-1.008 1.044-1.008 2.988V929h-6.12v-10.908q0-1.944-1.044-2.988-1.008-1.08-2.808-1.08t-2.844 1.08q-1.008 1.044-1.008 2.988V929h-6.156v-20.088h6.156v2.52q.936-1.26 2.448-1.98 1.512-.756 3.42-.756 2.268 0 4.032.972a6.94 6.94 0 0 1 2.808 2.772q1.044-1.656 2.844-2.7a7.7 7.7 0 0 1 3.924-1.044m39.943.216V929h-6.156v-2.736q-.936 1.332-2.556 2.16-1.584.792-3.528.792-2.304 0-4.068-1.008-1.764-1.044-2.736-2.988t-.972-4.572v-11.736h6.12v10.908q0 2.016 1.044 3.132t2.808 1.116q1.8 0 2.844-1.116t1.044-3.132v-10.908zm30.054-.216q3.744 0 5.94 2.268 2.232 2.268 2.232 6.3V929h-6.12v-10.908q0-1.944-1.044-2.988-1.008-1.08-2.808-1.08t-2.844 1.08q-1.008 1.044-1.008 2.988V929h-6.12v-10.908q0-1.944-1.044-2.988-1.008-1.08-2.808-1.08t-2.844 1.08q-1.008 1.044-1.008 2.988V929h-6.156v-20.088h6.156v2.52q.936-1.26 2.448-1.98 1.512-.756 3.42-.756 2.268 0 4.032.972a6.94 6.94 0 0 1 2.808 2.772q1.044-1.656 2.844-2.7a7.7 7.7 0 0 1 3.924-1.044m11.253 10.224q0-3.096 1.152-5.436 1.188-2.34 3.204-3.6t4.5-1.26q2.124 0 3.708.864 1.62.864 2.484 2.268v-2.844h6.156V929h-6.156v-2.844q-.9 1.404-2.52 2.268-1.584.864-3.708.864-2.448 0-4.464-1.26-2.016-1.296-3.204-3.636-1.152-2.376-1.152-5.472m15.048.036q0-2.304-1.296-3.636-1.26-1.332-3.096-1.332t-3.132 1.332q-1.26 1.296-1.26 3.6t1.26 3.672q1.296 1.332 3.132 1.332t3.096-1.332q1.296-1.332 1.296-3.636M310.388 966.26q1.08-1.656 2.7-2.592 1.62-.972 3.6-.972v6.516h-1.692q-2.304 0-3.456 1.008-1.152.972-1.152 3.456V983h-6.156v-20.088h6.156zm28.178 6.372q0 .864-.108 1.8h-13.932q.144 1.872 1.188 2.88 1.08.972 2.628.972 2.304 0 3.204-1.944h6.552a8.9 8.9 0 0 1-1.836 3.564q-1.296 1.584-3.276 2.484t-4.428.9q-2.952 0-5.256-1.26t-3.6-3.6-1.296-5.472 1.26-5.472q1.296-2.34 3.6-3.6t5.292-1.26q2.916 0 5.184 1.224a8.67 8.67 0 0 1 3.528 3.492q1.296 2.268 1.296 5.292m-6.3-1.62q0-1.584-1.08-2.52t-2.7-.936q-1.548 0-2.628.9-1.044.9-1.296 2.556zm17.72 12.276q-2.628 0-4.68-.9t-3.24-2.448a6.6 6.6 0 0 1-1.332-3.528h6.084q.108 1.044.972 1.692t2.124.648q1.152 0 1.764-.432.648-.468.648-1.188 0-.864-.9-1.26-.9-.432-2.916-.936-2.16-.504-3.6-1.044a6.46 6.46 0 0 1-2.484-1.764q-1.044-1.224-1.044-3.276 0-1.728.936-3.132.972-1.44 2.808-2.268 1.872-.828 4.428-.828 3.78 0 5.94 1.872 2.196 1.872 2.52 4.968h-5.688q-.144-1.044-.936-1.656-.756-.612-2.016-.612-1.08 0-1.656.432-.576.396-.576 1.116 0 .864.9 1.296.936.432 2.88.864 2.232.576 3.636 1.152 1.404.54 2.448 1.8 1.08 1.224 1.116 3.312a5.3 5.3 0 0 1-1.008 3.168q-.972 1.368-2.844 2.16-1.836.792-4.284.792m18.058-17.532q.9-1.404 2.484-2.268t3.708-.864q2.484 0 4.5 1.26t3.168 3.6q1.188 2.34 1.188 5.436t-1.188 5.472q-1.152 2.34-3.168 3.636-2.016 1.26-4.5 1.26-2.088 0-3.708-.864-1.584-.864-2.484-2.232v12.384h-6.156v-29.664h6.156zm8.784 7.164q0-2.304-1.296-3.6-1.26-1.332-3.132-1.332-1.836 0-3.132 1.332-1.26 1.332-1.26 3.636t1.26 3.636q1.296 1.332 3.132 1.332t3.132-1.332q1.296-1.368 1.296-3.672m18.638 10.368q-2.952 0-5.328-1.26-2.34-1.26-3.708-3.6-1.332-2.34-1.332-5.472 0-3.096 1.368-5.436 1.368-2.376 3.744-3.636t5.328-1.26 5.328 1.26 3.744 3.636q1.368 2.34 1.368 5.436t-1.404 5.472a9.26 9.26 0 0 1-3.78 3.6q-2.376 1.26-5.328 1.26m0-5.328q1.764 0 2.988-1.296 1.26-1.296 1.26-3.708t-1.224-3.708q-1.188-1.296-2.952-1.296-1.8 0-2.988 1.296-1.188 1.26-1.188 3.708 0 2.412 1.152 3.708 1.188 1.296 2.952 1.296m21.95 5.328q-2.628 0-4.68-.9t-3.24-2.448a6.6 6.6 0 0 1-1.332-3.528h6.084q.108 1.044.972 1.692t2.124.648q1.152 0 1.764-.432.648-.468.648-1.188 0-.864-.9-1.26-.9-.432-2.916-.936-2.16-.504-3.6-1.044a6.46 6.46 0 0 1-2.484-1.764q-1.044-1.224-1.044-3.276 0-1.728.936-3.132.972-1.44 2.808-2.268 1.872-.828 4.428-.828 3.78 0 5.94 1.872 2.196 1.872 2.52 4.968h-5.688q-.144-1.044-.936-1.656-.756-.612-2.016-.612-1.08 0-1.656.432-.576.396-.576 1.116 0 .864.9 1.296.936.432 2.88.864 2.232.576 3.636 1.152 1.404.54 2.448 1.8 1.08 1.224 1.116 3.312a5.3 5.3 0 0 1-1.008 3.168q-.972 1.368-2.844 2.16-1.836.792-4.284.792m23.098-5.508V983h-3.132q-3.348 0-5.22-1.62-1.872-1.656-1.872-5.364v-7.992h-2.448v-5.112h2.448v-4.896h6.156v4.896h4.032v5.112h-4.032v8.064q0 .9.432 1.296t1.44.396zm2.205-4.86q0-3.096 1.152-5.436 1.188-2.34 3.204-3.6t4.5-1.26q2.124 0 3.708.864 1.62.864 2.484 2.268v-2.844h6.156V983h-6.156v-2.844q-.9 1.404-2.52 2.268-1.584.864-3.708.864-2.448 0-4.464-1.26-2.016-1.296-3.204-3.636-1.152-2.376-1.152-5.472m15.048.036q0-2.304-1.296-3.636-1.26-1.332-3.096-1.332t-3.132 1.332q-1.26 1.296-1.26 3.6t1.26 3.672q1.296 1.332 3.132 1.332t3.096-1.332q1.296-1.332 1.296-3.636m13.49 10.332q-1.62 0-2.664-.936a3.17 3.17 0 0 1-1.008-2.376q0-1.44 1.008-2.412 1.044-.972 2.664-.972 1.584 0 2.592.972 1.044.972 1.044 2.412 0 1.404-1.044 2.376-1.008.936-2.592.936"/><path fill="#F8F8F8" d="M313.736 1027.28h-7.296l-1.344 3.72h-2.304l6.048-16.63h2.52l6.024 16.63h-2.304zm-.624-1.78-3.024-8.44-3.024 8.44zm9.092-5.23c.432-.75 1.072-1.37 1.92-1.87.864-.51 1.864-.77 3-.77q1.752 0 3.168.84c.96.56 1.712 1.35 2.256 2.38.544 1.01.816 2.18.816 3.53 0 1.32-.272 2.51-.816 3.55s-1.296 1.85-2.256 2.42q-1.416.87-3.168.87-1.68 0-2.976-.75-1.272-.765-1.944-1.89v8.66h-2.184v-19.39h2.184zm8.928 4.11c0-1-.2-1.86-.6-2.6q-.6-1.095-1.632-1.68a4.46 4.46 0 0 0-2.232-.57q-1.2 0-2.232.6c-.672.38-1.216.95-1.632 1.7-.4.74-.6 1.59-.6 2.57 0 .99.2 1.86.6 2.62.416.73.96 1.3 1.632 1.7.688.38 1.432.58 2.232.58.816 0 1.56-.2 2.232-.58.688-.4 1.232-.97 1.632-1.7q.6-1.14.6-2.64m7.291-4.4c.384-.75.928-1.33 1.632-1.75.72-.41 1.592-.62 2.616-.62v2.25h-.576q-3.672 0-3.672 3.99v7.15h-2.184v-13.15h2.184zm18.769 3.94q0 .63-.072 1.32h-10.512c.08 1.3.52 2.31 1.32 3.05q1.224 1.08 2.952 1.08c.944 0 1.728-.22 2.352-.65a3.54 3.54 0 0 0 1.344-1.78h2.352a5.7 5.7 0 0 1-2.112 3.1c-1.056.78-2.368 1.18-3.936 1.18q-1.872 0-3.36-.84c-.976-.56-1.744-1.36-2.304-2.38q-.84-1.56-.84-3.6c0-1.36.272-2.55.816-3.58a5.73 5.73 0 0 1 2.28-2.35q1.488-.84 3.408-.84c1.248 0 2.352.27 3.312.82a5.5 5.5 0 0 1 2.208 2.25c.528.95.792 2.02.792 3.22m-2.256-.46q0-1.245-.552-2.13a3.44 3.44 0 0 0-1.512-1.37q-.936-.48-2.088-.48c-1.104 0-2.048.35-2.832 1.06-.768.7-1.208 1.68-1.32 2.92zm11.547-5.85c1.6 0 2.896.49 3.888 1.46.992.96 1.488 2.35 1.488 4.18v7.75h-2.16v-7.44q0-1.965-.984-3c-.656-.7-1.552-1.06-2.688-1.06q-1.728 0-2.76 1.08-1.008 1.08-1.008 3.15v7.27h-2.184v-13.15h2.184v1.87a4.4 4.4 0 0 1 1.752-1.56c.752-.37 1.576-.55 2.472-.55m8.127 6.77c0-1.35.272-2.52.816-3.53.544-1.03 1.288-1.82 2.232-2.38q1.44-.84 3.216-.84a5.9 5.9 0 0 1 2.856.72c.88.47 1.552 1.08 2.016 1.85v-6.96h2.208V1031h-2.208v-2.47c-.432.78-1.072 1.43-1.92 1.94q-1.272.75-2.976.75-1.752 0-3.192-.87c-.944-.57-1.688-1.38-2.232-2.42s-.816-2.23-.816-3.55m11.136.02c0-.99-.2-1.86-.6-2.59q-.6-1.11-1.632-1.68-1.008-.6-2.232-.6t-2.232.57q-1.008.585-1.608 1.68c-.4.74-.6 1.6-.6 2.6q0 1.5.6 2.64c.4.73.936 1.3 1.608 1.7.672.38 1.416.58 2.232.58s1.56-.2 2.232-.58c.688-.4 1.232-.97 1.632-1.7.4-.76.6-1.63.6-2.62m5.083-.02c0-1.35.272-2.52.816-3.53.544-1.03 1.288-1.82 2.232-2.38q1.44-.84 3.192-.84 1.728 0 3 .75c.848.49 1.48 1.12 1.896 1.87v-2.4h2.208V1031h-2.208v-2.45q-.648 1.155-1.944 1.92-1.272.75-2.976.75-1.752 0-3.168-.87c-.944-.57-1.688-1.38-2.232-2.42s-.816-2.23-.816-3.55m11.136.02c0-.99-.2-1.86-.6-2.59q-.6-1.11-1.632-1.68-1.008-.6-2.232-.6t-2.232.57q-1.008.585-1.608 1.68c-.4.74-.6 1.6-.6 2.6q0 1.5.6 2.64c.4.73.936 1.3 1.608 1.7.672.38 1.416.58 2.232.58s1.56-.2 2.232-.58c.688-.4 1.232-.97 1.632-1.7.4-.76.6-1.63.6-2.62m24.297-.48q0 .63-.072 1.32h-10.512c.08 1.3.52 2.31 1.32 3.05q1.224 1.08 2.952 1.08c.944 0 1.728-.22 2.352-.65a3.54 3.54 0 0 0 1.344-1.78h2.352a5.7 5.7 0 0 1-2.112 3.1c-1.056.78-2.368 1.18-3.936 1.18q-1.872 0-3.36-.84c-.976-.56-1.744-1.36-2.304-2.38q-.84-1.56-.84-3.6c0-1.36.272-2.55.816-3.58a5.73 5.73 0 0 1 2.28-2.35q1.488-.84 3.408-.84c1.248 0 2.352.27 3.312.82a5.5 5.5 0 0 1 2.208 2.25c.528.95.792 2.02.792 3.22m-2.256-.46q0-1.245-.552-2.13a3.44 3.44 0 0 0-1.512-1.37q-.936-.48-2.088-.48c-1.104 0-2.048.35-2.832 1.06-.768.7-1.208 1.68-1.32 2.92zm10.721.94c0-1.36.272-2.54.816-3.55.544-1.03 1.296-1.82 2.256-2.38q1.464-.84 3.336-.84c1.616 0 2.944.39 3.984 1.18 1.056.78 1.752 1.87 2.088 3.26h-2.352q-.336-1.2-1.32-1.89c-.64-.47-1.44-.7-2.4-.7-1.248 0-2.256.43-3.024 1.3-.768.84-1.152 2.05-1.152 3.62 0 1.58.384 2.81 1.152 3.67.768.87 1.776 1.3 3.024 1.3.96 0 1.76-.23 2.4-.67q.96-.675 1.32-1.92h2.352q-.528 2.01-2.112 3.24-1.584 1.2-3.96 1.2-1.872 0-3.336-.84c-.96-.56-1.712-1.36-2.256-2.38q-.816-1.53-.816-3.6m21.13 6.82q-1.848 0-3.36-.84c-.992-.56-1.776-1.36-2.352-2.38q-.84-1.56-.84-3.6c0-1.34.288-2.53.864-3.55.592-1.04 1.392-1.83 2.4-2.38q1.512-.84 3.384-.84t3.384.84c1.008.55 1.8 1.33 2.376 2.35.592 1.03.888 2.22.888 3.58q0 2.04-.912 3.6a6.2 6.2 0 0 1-2.424 2.38q-1.536.84-3.408.84m0-1.92c.784 0 1.52-.19 2.208-.56.688-.36 1.24-.92 1.656-1.65.432-.74.648-1.63.648-2.69s-.208-1.95-.624-2.69c-.416-.73-.96-1.28-1.632-1.63a4.45 4.45 0 0 0-2.184-.55c-.8 0-1.536.18-2.208.55-.656.35-1.184.9-1.584 1.63-.4.74-.6 1.63-.6 2.69 0 1.07.192 1.98.576 2.71.4.74.928 1.29 1.584 1.66a4.5 4.5 0 0 0 2.16.53m25.432-11.69c1.024 0 1.936.21 2.736.65q1.2.615 1.896 1.89c.464.85.696 1.88.696 3.1v7.75h-2.16v-7.44q0-1.965-.984-3c-.64-.7-1.512-1.06-2.616-1.06q-1.704 0-2.712 1.11c-.672.72-1.008 1.77-1.008 3.14v7.25h-2.16v-7.44q0-1.965-.984-3c-.64-.7-1.512-1.06-2.616-1.06q-1.704 0-2.712 1.11c-.672.72-1.008 1.77-1.008 3.14v7.25h-2.184v-13.15h2.184v1.89a4.4 4.4 0 0 1 1.728-1.58c.736-.37 1.544-.55 2.424-.55 1.104 0 2.08.25 2.928.74q1.272.75 1.896 2.19.552-1.395 1.824-2.16c.848-.52 1.792-.77 2.832-.77m11.095 2.66c.432-.75 1.072-1.37 1.92-1.87.864-.51 1.864-.77 3-.77q1.752 0 3.168.84c.96.56 1.712 1.35 2.256 2.38.544 1.01.816 2.18.816 3.53 0 1.32-.272 2.51-.816 3.55s-1.296 1.85-2.256 2.42q-1.416.87-3.168.87-1.68 0-2.976-.75-1.272-.765-1.944-1.89v8.66H490.2v-19.39h2.184zm8.928 4.11c0-1-.2-1.86-.6-2.6q-.6-1.095-1.632-1.68a4.46 4.46 0 0 0-2.232-.57q-1.2 0-2.232.6c-.672.38-1.216.95-1.632 1.7-.4.74-.6 1.59-.6 2.57 0 .99.2 1.86.6 2.62.416.73.96 1.3 1.632 1.7.688.38 1.432.58 2.232.58.816 0 1.56-.2 2.232-.58.688-.4 1.232-.97 1.632-1.7q.6-1.14.6-2.64m4.29 0c0-1.35.272-2.52.816-3.53.544-1.03 1.288-1.82 2.232-2.38q1.44-.84 3.192-.84 1.728 0 3 .75c.848.49 1.48 1.12 1.896 1.87v-2.4h2.208V1031h-2.208v-2.45q-.648 1.155-1.944 1.92-1.272.75-2.976.75-1.752 0-3.168-.87c-.944-.57-1.688-1.38-2.232-2.42s-.816-2.23-.816-3.55m11.136.02c0-.99-.2-1.86-.6-2.59q-.6-1.11-1.632-1.68-1.008-.6-2.232-.6t-2.232.57q-1.008.585-1.608 1.68c-.4.74-.6 1.6-.6 2.6q0 1.5.6 2.64c.4.73.936 1.3 1.608 1.7.672.38 1.416.58 2.232.58s1.56-.2 2.232-.58c.688-.4 1.232-.97 1.632-1.7.4-.76.6-1.63.6-2.62m8.083-4.42c.384-.75.928-1.33 1.632-1.75.72-.41 1.592-.62 2.616-.62v2.25h-.576q-3.672 0-3.672 3.99v7.15h-2.184v-13.15h2.184zm9.433-.33v7.75c0 .64.136 1.1.408 1.37.272.25.744.38 1.416.38h1.608v1.85h-1.968q-1.824 0-2.736-.84t-.912-2.76v-7.75h-1.704v-1.8h1.704v-3.31h2.184v3.31h3.432v1.8zm7.206-3.94c-.416 0-.768-.14-1.056-.43a1.44 1.44 0 0 1-.432-1.06q0-.615.432-1.05c.288-.29.64-.43 1.056-.43.4 0 .736.14 1.008.43q.432.435.432 1.05c0 .42-.144.77-.432 1.06-.272.29-.608.43-1.008.43m1.056 2.14V1031h-2.184v-13.15zm5.907-4.61V1031h-2.184v-17.76zm10.25 4.37c.992 0 1.888.21 2.688.65q1.2.615 1.872 1.89c.464.85.696 1.88.696 3.1v7.75h-2.16v-7.44q0-1.965-.984-3c-.656-.7-1.552-1.06-2.688-1.06q-1.728 0-2.76 1.08-1.008 1.08-1.008 3.15v7.27h-2.184v-17.76h2.184v6.48a4.35 4.35 0 0 1 1.776-1.56c.768-.37 1.624-.55 2.568-.55m20.823 6.31q0 .63-.072 1.32h-10.512c.08 1.3.52 2.31 1.32 3.05q1.224 1.08 2.952 1.08c.944 0 1.728-.22 2.352-.65a3.54 3.54 0 0 0 1.344-1.78h2.352a5.7 5.7 0 0 1-2.112 3.1c-1.056.78-2.368 1.18-3.936 1.18q-1.872 0-3.36-.84c-.976-.56-1.744-1.36-2.304-2.38q-.84-1.56-.84-3.6c0-1.36.272-2.55.816-3.58a5.73 5.73 0 0 1 2.28-2.35q1.488-.84 3.408-.84c1.248 0 2.352.27 3.312.82a5.5 5.5 0 0 1 2.208 2.25c.528.95.792 2.02.792 3.22m-2.256-.46q0-1.245-.552-2.13a3.44 3.44 0 0 0-1.512-1.37q-.936-.48-2.088-.48c-1.104 0-2.048.35-2.832 1.06-.768.7-1.208 1.68-1.32 2.92zm10.722.94c0-1.36.272-2.54.816-3.55.544-1.03 1.296-1.82 2.256-2.38q1.464-.84 3.336-.84c1.616 0 2.944.39 3.984 1.18 1.056.78 1.752 1.87 2.088 3.26h-2.352q-.336-1.2-1.32-1.89c-.64-.47-1.44-.7-2.4-.7-1.248 0-2.256.43-3.024 1.3-.768.84-1.152 2.05-1.152 3.62 0 1.58.384 2.81 1.152 3.67.768.87 1.776 1.3 3.024 1.3.96 0 1.76-.23 2.4-.67q.96-.675 1.32-1.92h2.352q-.528 2.01-2.112 3.24-1.584 1.2-3.96 1.2-1.872 0-3.336-.84c-.96-.56-1.712-1.36-2.256-2.38q-.816-1.53-.816-3.6m21.13 6.82q-1.848 0-3.36-.84c-.992-.56-1.776-1.36-2.352-2.38q-.84-1.56-.84-3.6c0-1.34.288-2.53.864-3.55.592-1.04 1.392-1.83 2.4-2.38q1.512-.84 3.384-.84t3.384.84c1.008.55 1.8 1.33 2.376 2.35.592 1.03.888 2.22.888 3.58q0 2.04-.912 3.6a6.2 6.2 0 0 1-2.424 2.38q-1.536.84-3.408.84m0-1.92c.784 0 1.52-.19 2.208-.56.688-.36 1.24-.92 1.656-1.65.432-.74.648-1.63.648-2.69s-.208-1.95-.624-2.69c-.416-.73-.96-1.28-1.632-1.63a4.45 4.45 0 0 0-2.184-.55c-.8 0-1.536.18-2.208.55-.656.35-1.184.9-1.584 1.63-.4.74-.6 1.63-.6 2.69 0 1.07.192 1.98.576 2.71.4.74.928 1.29 1.584 1.66a4.5 4.5 0 0 0 2.16.53m16.023-11.69c1.6 0 2.896.49 3.888 1.46.992.96 1.488 2.35 1.488 4.18v7.75h-2.16v-7.44q0-1.965-.984-3c-.656-.7-1.552-1.06-2.688-1.06q-1.728 0-2.76 1.08-1.008 1.08-1.008 3.15v7.27h-2.184v-13.15h2.184v1.87a4.4 4.4 0 0 1 1.752-1.56c.752-.37 1.576-.55 2.472-.55m15.472 0c.992 0 1.888.21 2.688.65q1.2.615 1.872 1.89c.464.85.696 1.88.696 3.1v7.75h-2.16v-7.44q0-1.965-.984-3c-.656-.7-1.552-1.06-2.688-1.06q-1.728 0-2.76 1.08-1.008 1.08-1.008 3.15v7.27h-2.184v-17.76h2.184v6.48a4.35 4.35 0 0 1 1.776-1.56c.768-.37 1.624-.55 2.568-.55m20.824 6.31q0 .63-.072 1.32h-10.512c.08 1.3.52 2.31 1.32 3.05q1.224 1.08 2.952 1.08c.944 0 1.728-.22 2.352-.65a3.54 3.54 0 0 0 1.344-1.78h2.352a5.7 5.7 0 0 1-2.112 3.1c-1.056.78-2.368 1.18-3.936 1.18q-1.872 0-3.36-.84c-.976-.56-1.744-1.36-2.304-2.38q-.84-1.56-.84-3.6c0-1.36.272-2.55.816-3.58a5.73 5.73 0 0 1 2.28-2.35q1.488-.84 3.408-.84c1.248 0 2.352.27 3.312.82a5.5 5.5 0 0 1 2.208 2.25c.528.95.792 2.02.792 3.22m-2.256-.46q0-1.245-.552-2.13a3.44 3.44 0 0 0-1.512-1.37q-.936-.48-2.088-.48c-1.104 0-2.048.35-2.832 1.06-.768.7-1.208 1.68-1.32 2.92zm4.322.94c0-1.36.272-2.54.816-3.55.544-1.03 1.296-1.82 2.256-2.38q1.464-.84 3.336-.84c1.616 0 2.944.39 3.984 1.18 1.056.78 1.752 1.87 2.088 3.26h-2.352q-.336-1.2-1.32-1.89c-.64-.47-1.44-.7-2.4-.7-1.248 0-2.256.43-3.024 1.3-.768.84-1.152 2.05-1.152 3.62 0 1.58.384 2.81 1.152 3.67.768.87 1.776 1.3 3.024 1.3.96 0 1.76-.23 2.4-.67q.96-.675 1.32-1.92h2.352q-.528 2.01-2.112 3.24-1.584 1.2-3.96 1.2-1.872 0-3.336-.84c-.96-.56-1.712-1.36-2.256-2.38q-.816-1.53-.816-3.6m16.522-8.69c-.416 0-.768-.14-1.056-.43a1.44 1.44 0 0 1-.432-1.06q0-.615.432-1.05c.288-.29.64-.43 1.056-.43.4 0 .736.14 1.008.43q.432.435.432 1.05c0 .42-.144.77-.432 1.06-.272.29-.608.43-1.008.43m1.056 2.14V1031h-2.184v-13.15zm19.539-.24c1.024 0 1.936.21 2.736.65q1.2.615 1.896 1.89c.464.85.696 1.88.696 3.1v7.75h-2.16v-7.44q0-1.965-.984-3c-.64-.7-1.512-1.06-2.616-1.06q-1.704 0-2.712 1.11c-.672.72-1.008 1.77-1.008 3.14v7.25h-2.16v-7.44q0-1.965-.984-3c-.64-.7-1.512-1.06-2.616-1.06q-1.704 0-2.712 1.11c-.672.72-1.008 1.77-1.008 3.14v7.25h-2.184v-13.15h2.184v1.89a4.4 4.4 0 0 1 1.728-1.58c.736-.37 1.544-.55 2.424-.55 1.104 0 2.08.25 2.928.74q1.272.75 1.896 2.19.552-1.395 1.824-2.16c.848-.52 1.792-.77 2.832-.77m20.91 6.31q0 .63-.072 1.32H710.92c.08 1.3.52 2.31 1.32 3.05q1.224 1.08 2.952 1.08c.944 0 1.728-.22 2.352-.65a3.54 3.54 0 0 0 1.344-1.78h2.352a5.7 5.7 0 0 1-2.112 3.1c-1.056.78-2.368 1.18-3.936 1.18q-1.872 0-3.36-.84c-.976-.56-1.744-1.36-2.304-2.38q-.84-1.56-.84-3.6c0-1.36.272-2.55.816-3.58a5.73 5.73 0 0 1 2.28-2.35q1.488-.84 3.408-.84c1.248 0 2.352.27 3.312.82a5.5 5.5 0 0 1 2.208 2.25c.528.95.792 2.02.792 3.22m-2.256-.46q0-1.245-.552-2.13a3.44 3.44 0 0 0-1.512-1.37q-.936-.48-2.088-.48c-1.104 0-2.048.35-2.832 1.06-.768.7-1.208 1.68-1.32 2.92zm11.547-5.85c1.6 0 2.896.49 3.888 1.46.992.96 1.488 2.35 1.488 4.18v7.75h-2.16v-7.44q0-1.965-.984-3c-.656-.7-1.552-1.06-2.688-1.06q-1.728 0-2.76 1.08-1.008 1.08-1.008 3.15v7.27h-2.184v-13.15h2.184v1.87a4.4 4.4 0 0 1 1.752-1.56c.752-.37 1.576-.55 2.472-.55m11.608 2.04v7.75c0 .64.136 1.1.408 1.37.272.25.744.38 1.416.38h1.608v1.85h-1.968q-1.824 0-2.736-.84t-.912-2.76v-7.75h-1.704v-1.8h1.704v-3.31h2.184v3.31h3.432v1.8zm11.814 11.57q-1.848 0-3.36-.84c-.992-.56-1.776-1.36-2.352-2.38q-.84-1.56-.84-3.6c0-1.34.288-2.53.864-3.55.592-1.04 1.392-1.83 2.4-2.38q1.512-.84 3.384-.84t3.384.84c1.008.55 1.8 1.33 2.376 2.35.592 1.03.888 2.22.888 3.58q0 2.04-.912 3.6a6.2 6.2 0 0 1-2.424 2.38q-1.536.84-3.408.84m0-1.92c.784 0 1.52-.19 2.208-.56.688-.36 1.24-.92 1.656-1.65.432-.74.648-1.63.648-2.69s-.208-1.95-.624-2.69c-.416-.73-.96-1.28-1.632-1.63a4.45 4.45 0 0 0-2.184-.55c-.8 0-1.536.18-2.208.55-.656.35-1.184.9-1.584 1.63-.4.74-.6 1.63-.6 2.69 0 1.07.192 1.98.576 2.71.4.74.928 1.29 1.584 1.66a4.5 4.5 0 0 0 2.16.53m-451.185 31.1c0-1.36.272-2.54.816-3.55.544-1.03 1.296-1.82 2.256-2.38q1.464-.84 3.336-.84c1.616 0 2.944.39 3.984 1.18 1.056.78 1.752 1.87 2.088 3.26h-2.352q-.336-1.2-1.32-1.89c-.64-.47-1.44-.7-2.4-.7-1.248 0-2.256.43-3.024 1.3-.768.84-1.152 2.05-1.152 3.62 0 1.58.384 2.81 1.152 3.67.768.87 1.776 1.3 3.024 1.3.96 0 1.76-.23 2.4-.67q.96-.675 1.32-1.92h2.352q-.528 2.01-2.112 3.24-1.584 1.2-3.96 1.2-1.872 0-3.336-.84c-.96-.56-1.712-1.36-2.256-2.38q-.816-1.53-.816-3.6m21.13 6.82q-1.848 0-3.36-.84c-.992-.56-1.776-1.36-2.352-2.38q-.84-1.56-.84-3.6c0-1.34.288-2.53.864-3.55.592-1.04 1.392-1.83 2.4-2.38q1.512-.84 3.384-.84t3.384.84c1.008.55 1.8 1.33 2.376 2.35.592 1.03.888 2.22.888 3.58q0 2.04-.912 3.6a6.2 6.2 0 0 1-2.424 2.38q-1.536.84-3.408.84m0-1.92c.784 0 1.52-.19 2.208-.56.688-.36 1.24-.92 1.656-1.65.432-.74.648-1.63.648-2.69s-.208-1.95-.624-2.69c-.416-.73-.96-1.28-1.632-1.63a4.45 4.45 0 0 0-2.184-.55c-.8 0-1.536.18-2.208.55-.656.35-1.184.9-1.584 1.63-.4.74-.6 1.63-.6 2.69 0 1.07.192 1.98.576 2.71.4.74.928 1.29 1.584 1.66a4.5 4.5 0 0 0 2.16.53m25.432-11.69c1.024 0 1.936.21 2.736.65q1.2.615 1.896 1.89c.464.85.696 1.88.696 3.1v7.75h-2.16v-7.44q0-1.965-.984-3c-.64-.7-1.512-1.06-2.616-1.06q-1.704 0-2.712 1.11c-.672.72-1.008 1.77-1.008 3.14v7.25h-2.16v-7.44q0-1.965-.984-3c-.64-.7-1.512-1.06-2.616-1.06q-1.704 0-2.712 1.11c-.672.72-1.008 1.77-1.008 3.14v7.25h-2.184v-13.15h2.184v1.89a4.4 4.4 0 0 1 1.728-1.58c.736-.37 1.544-.55 2.424-.55 1.104 0 2.08.25 2.928.74q1.272.75 1.896 2.19.552-1.395 1.824-2.16c.848-.52 1.792-.77 2.832-.77m21.045 13.61q-1.848 0-3.36-.84c-.992-.56-1.776-1.36-2.352-2.38q-.84-1.56-.84-3.6c0-1.34.288-2.53.864-3.55.592-1.04 1.392-1.83 2.4-2.38q1.512-.84 3.384-.84t3.384.84c1.008.55 1.8 1.33 2.376 2.35.592 1.03.888 2.22.888 3.58q0 2.04-.912 3.6a6.2 6.2 0 0 1-2.424 2.38q-1.536.84-3.408.84m0-1.92c.784 0 1.52-.19 2.208-.56.688-.36 1.24-.92 1.656-1.65.432-.74.648-1.63.648-2.69s-.208-1.95-.624-2.69c-.416-.73-.96-1.28-1.632-1.63a4.45 4.45 0 0 0-2.184-.55c-.8 0-1.536.18-2.208.55-.656.35-1.184.9-1.584 1.63-.4.74-.6 1.63-.6 2.69 0 1.07.192 1.98.576 2.71.4.74.928 1.29 1.584 1.66a4.5 4.5 0 0 0 2.16.53m21.279-11.45V1067h-2.184v-1.94c-.416.67-1 1.2-1.752 1.58-.736.37-1.552.55-2.448.55-1.024 0-1.944-.21-2.76-.62q-1.224-.645-1.944-1.92c-.464-.85-.696-1.88-.696-3.1v-7.7h2.16v7.41q0 1.95.984 3c.656.69 1.552 1.04 2.688 1.04q1.752 0 2.76-1.08t1.008-3.15v-7.22zm6.352 1.8v7.75c0 .64.136 1.1.408 1.37.272.25.744.38 1.416.38h1.608v1.85h-1.968q-1.824 0-2.736-.84t-.912-2.76v-7.75h-1.704v-1.8h1.704v-3.31h2.184v3.31h3.432v1.8zm8.262.33c.384-.75.928-1.33 1.632-1.75.72-.41 1.592-.62 2.616-.62v2.25h-.576q-3.672 0-3.672 3.99v7.15h-2.184v-13.15h2.184zm5.953 4.4c0-1.35.272-2.52.816-3.53.544-1.03 1.288-1.82 2.232-2.38q1.44-.84 3.192-.84 1.728 0 3 .75c.848.49 1.48 1.12 1.896 1.87v-2.4h2.208V1067h-2.208v-2.45q-.648 1.155-1.944 1.92-1.272.75-2.976.75-1.752 0-3.168-.87c-.944-.57-1.688-1.38-2.232-2.42s-.816-2.23-.816-3.55m11.136.02c0-.99-.2-1.86-.6-2.59q-.6-1.11-1.632-1.68-1.008-.6-2.232-.6t-2.232.57q-1.008.585-1.608 1.68c-.4.74-.6 1.6-.6 2.6q0 1.5.6 2.64c.4.73.936 1.3 1.608 1.7.672.38 1.416.58 2.232.58s1.56-.2 2.232-.58c.688-.4 1.232-.97 1.632-1.7.4-.76.6-1.63.6-2.62m10.555 6.82q-1.512 0-2.712-.51-1.2-.525-1.896-1.44a3.86 3.86 0 0 1-.768-2.13h2.256c.064.65.368 1.19.912 1.6q.84.63 2.184.63c.832 0 1.488-.19 1.968-.55.48-.37.72-.84.72-1.4 0-.57-.256-1-.768-1.27q-.768-.435-2.376-.84c-.976-.25-1.776-.51-2.4-.77a4.5 4.5 0 0 1-1.584-1.17q-.648-.795-.648-2.07c0-.67.2-1.28.6-1.84q.6-.84 1.704-1.32 1.104-.51 2.52-.51 2.184 0 3.528 1.11c.896.73 1.376 1.74 1.44 3.02h-2.184c-.048-.69-.328-1.24-.84-1.66-.496-.41-1.168-.62-2.016-.62-.784 0-1.408.17-1.872.5q-.696.51-.696 1.32 0 .66.408 1.08c.288.28.64.5 1.056.68.432.16 1.024.34 1.776.55.944.25 1.712.51 2.304.77.592.24 1.096.6 1.512 1.1.432.5.656 1.14.672 1.94q0 1.08-.6 1.95c-.4.57-.968 1.03-1.704 1.37q-1.08.48-2.496.48m16.465-10.95c.432-.75 1.072-1.37 1.92-1.87.864-.51 1.864-.77 3-.77q1.752 0 3.168.84c.96.56 1.712 1.35 2.256 2.38.544 1.01.816 2.18.816 3.53 0 1.32-.272 2.51-.816 3.55s-1.296 1.85-2.256 2.42q-1.416.87-3.168.87-1.68 0-2.976-.75-1.272-.765-1.944-1.89v8.66h-2.184v-19.39h2.184zm8.928 4.11c0-1-.2-1.86-.6-2.6q-.6-1.095-1.632-1.68a4.46 4.46 0 0 0-2.232-.57q-1.2 0-2.232.6c-.672.38-1.216.95-1.632 1.7-.4.74-.6 1.59-.6 2.57 0 .99.2 1.86.6 2.62.416.73.96 1.3 1.632 1.7.688.38 1.432.58 2.232.58.816 0 1.56-.2 2.232-.58.688-.4 1.232-.97 1.632-1.7q.6-1.14.6-2.64m17.107-.46q0 .63-.072 1.32h-10.512c.08 1.3.52 2.31 1.32 3.05q1.224 1.08 2.952 1.08c.944 0 1.728-.22 2.352-.65a3.54 3.54 0 0 0 1.344-1.78h2.352a5.7 5.7 0 0 1-2.112 3.1c-1.056.78-2.368 1.18-3.936 1.18q-1.872 0-3.36-.84c-.976-.56-1.744-1.36-2.304-2.38q-.84-1.56-.84-3.6c0-1.36.272-2.55.816-3.58a5.73 5.73 0 0 1 2.28-2.35q1.488-.84 3.408-.84c1.248 0 2.352.27 3.312.82a5.5 5.5 0 0 1 2.208 2.25c.528.95.792 2.02.792 3.22m-2.256-.46q0-1.245-.552-2.13a3.44 3.44 0 0 0-1.512-1.37q-.936-.48-2.088-.48c-1.104 0-2.048.35-2.832 1.06-.768.7-1.208 1.68-1.32 2.92zm9.795 7.76q-1.512 0-2.712-.51-1.2-.525-1.896-1.44a3.86 3.86 0 0 1-.768-2.13h2.256c.064.65.368 1.19.912 1.6q.84.63 2.184.63c.832 0 1.488-.19 1.968-.55.48-.37.72-.84.72-1.4 0-.57-.256-1-.768-1.27q-.768-.435-2.376-.84c-.976-.25-1.776-.51-2.4-.77a4.5 4.5 0 0 1-1.584-1.17q-.648-.795-.648-2.07c0-.67.2-1.28.6-1.84q.6-.84 1.704-1.32 1.104-.51 2.52-.51 2.184 0 3.528 1.11c.896.73 1.376 1.74 1.44 3.02h-2.184c-.048-.69-.328-1.24-.84-1.66-.496-.41-1.168-.62-2.016-.62-.784 0-1.408.17-1.872.5q-.696.51-.696 1.32 0 .66.408 1.08c.288.28.64.5 1.056.68.432.16 1.024.34 1.776.55.944.25 1.712.51 2.304.77.592.24 1.096.6 1.512 1.1.432.5.656 1.14.672 1.94q0 1.08-.6 1.95c-.4.57-.968 1.03-1.704 1.37q-1.08.48-2.496.48m12.539 0q-1.512 0-2.712-.51-1.2-.525-1.896-1.44a3.86 3.86 0 0 1-.768-2.13h2.256c.064.65.368 1.19.912 1.6q.84.63 2.184.63c.832 0 1.488-.19 1.968-.55.48-.37.72-.84.72-1.4 0-.57-.256-1-.768-1.27q-.768-.435-2.376-.84c-.976-.25-1.776-.51-2.4-.77a4.5 4.5 0 0 1-1.584-1.17q-.648-.795-.648-2.07c0-.67.2-1.28.6-1.84q.6-.84 1.704-1.32 1.104-.51 2.52-.51 2.184 0 3.528 1.11c.896.73 1.376 1.74 1.44 3.02h-2.184c-.048-.69-.328-1.24-.84-1.66-.496-.41-1.168-.62-2.016-.62-.784 0-1.408.17-1.872.5q-.696.51-.696 1.32 0 .66.408 1.08c.288.28.64.5 1.056.68.432.16 1.024.34 1.776.55.944.25 1.712.51 2.304.77.592.24 1.096.6 1.512 1.1.432.5.656 1.14.672 1.94q0 1.08-.6 1.95c-.4.57-.968 1.03-1.704 1.37q-1.08.48-2.496.48m13.619 0q-1.848 0-3.36-.84c-.992-.56-1.776-1.36-2.352-2.38q-.84-1.56-.84-3.6c0-1.34.288-2.53.864-3.55.592-1.04 1.392-1.83 2.4-2.38q1.512-.84 3.384-.84t3.384.84c1.008.55 1.8 1.33 2.376 2.35.592 1.03.888 2.22.888 3.58q0 2.04-.912 3.6a6.2 6.2 0 0 1-2.424 2.38q-1.536.84-3.408.84m0-1.92c.784 0 1.52-.19 2.208-.56.688-.36 1.24-.92 1.656-1.65.432-.74.648-1.63.648-2.69s-.208-1.95-.624-2.69c-.416-.73-.96-1.28-1.632-1.63a4.45 4.45 0 0 0-2.184-.55c-.8 0-1.536.18-2.208.55-.656.35-1.184.9-1.584 1.63-.4.74-.6 1.63-.6 2.69 0 1.07.192 1.98.576 2.71.4.74.928 1.29 1.584 1.66a4.5 4.5 0 0 0 2.16.53m8.8-4.92c0-1.35.272-2.52.816-3.53.544-1.03 1.288-1.82 2.232-2.38q1.44-.84 3.192-.84 1.728 0 3 .75c.848.49 1.48 1.12 1.896 1.87v-2.4h2.208V1067h-2.208v-2.45q-.648 1.155-1.944 1.92-1.272.75-2.976.75-1.752 0-3.168-.87c-.944-.57-1.688-1.38-2.232-2.42s-.816-2.23-.816-3.55m11.136.02c0-.99-.2-1.86-.6-2.59q-.6-1.11-1.632-1.68-1.008-.6-2.232-.6t-2.232.57q-1.008.585-1.608 1.68c-.4.74-.6 1.6-.6 2.6q0 1.5.6 2.64c.4.73.936 1.3 1.608 1.7.672.38 1.416.58 2.232.58s1.56-.2 2.232-.58c.688-.4 1.232-.97 1.632-1.7.4-.76.6-1.63.6-2.62m10.554 6.82q-1.512 0-2.712-.51-1.2-.525-1.896-1.44a3.86 3.86 0 0 1-.768-2.13h2.256c.064.65.368 1.19.912 1.6q.84.63 2.184.63c.832 0 1.488-.19 1.968-.55.48-.37.72-.84.72-1.4 0-.57-.256-1-.768-1.27q-.768-.435-2.376-.84c-.976-.25-1.776-.51-2.4-.77a4.5 4.5 0 0 1-1.584-1.17q-.648-.795-.648-2.07c0-.67.2-1.28.6-1.84q.6-.84 1.704-1.32 1.104-.51 2.52-.51 2.184 0 3.528 1.11c.896.73 1.376 1.74 1.44 3.02h-2.184c-.048-.69-.328-1.24-.84-1.66-.496-.41-1.168-.62-2.016-.62-.784 0-1.408.17-1.872.5q-.696.51-.696 1.32 0 .66.408 1.08c.288.28.64.5 1.056.68.432.16 1.024.34 1.776.55.944.25 1.712.51 2.304.77.592.24 1.096.6 1.512 1.1.432.5.656 1.14.672 1.94q0 1.08-.6 1.95c-.4.57-.968 1.03-1.704 1.37q-1.08.48-2.496.48" opacity=".7"/><rect width="320" height="50" x="1138" y="1167" fill="#835AFD" rx="8"/><path stroke="#FAFAFA" stroke-linecap="round" stroke-linejoin="round" stroke-width="1.5" d="M1239.5 1184.5h3.33c.45 0 .87.18 1.18.49s.49.73.49 1.18v11.66c0 .45-.18.87-.49 1.18s-.73.49-1.18.49h-3.33M1235.33 1196.17l4.17-4.17-4.17-4.17M1239.5 1192h-10"/><path fill="#FAFAFA" d="M1260.02 1188.35v3.27h3.84v1.48h-3.84v3.41h4.32v1.49h-6.14v-11.14h6.14v1.49zm11.02.69c.69 0 1.31.14 1.85.43.56.29.99.72 1.3 1.28.31.57.46 1.25.46 2.05v5.2h-1.8v-4.93c0-.79-.2-1.39-.6-1.81-.39-.42-.93-.64-1.61-.64s-1.23.22-1.63.64-.6 1.02-.6 1.81v4.93h-1.82v-8.82h1.82v1.01c.3-.36.68-.64 1.14-.85.47-.2.97-.3 1.49-.3m8.07 1.63v4.88c0 .33.07.57.22.72.16.14.43.21.8.21h1.12v1.52h-1.44c-.82 0-1.45-.19-1.88-.58-.44-.38-.66-1-.66-1.87v-4.88h-1.04v-1.49h1.04v-2.19h1.84v2.19h2.14v1.49zm5.65-.21c.27-.44.62-.79 1.05-1.04.45-.25.98-.38 1.59-.38v1.89h-.47c-.71 0-1.25.18-1.63.54q-.54.54-.54 1.89v4.64h-1.83v-8.82h1.83zm3.71 3.09c0-.88.18-1.67.54-2.35.37-.68.88-1.21 1.51-1.58.64-.39 1.34-.58 2.11-.58.69 0 1.29.14 1.81.42.52.26.93.6 1.24 1v-1.28h1.84v8.82h-1.84v-1.31c-.31.41-.73.76-1.26 1.04s-1.14.41-1.82.41c-.76 0-1.46-.19-2.08-.57-.63-.4-1.14-.94-1.51-1.63-.36-.71-.54-1.5-.54-2.39m7.21.03c0-.6-.12-1.13-.38-1.58-.25-.45-.57-.79-.98-1.02-.4-.24-.84-.36-1.31-.36s-.91.12-1.31.36c-.41.22-.74.56-.99 1s-.37.96-.37 1.57.12 1.14.37 1.6.58.81.99 1.06c.42.23.85.35 1.31.35.47 0 .91-.12 1.31-.35.41-.24.73-.58.98-1.03.26-.45.38-.99.38-1.6m6.06-3.12c.27-.44.62-.79 1.06-1.04.45-.25.97-.38 1.58-.38v1.89h-.46c-.72 0-1.26.18-1.63.54s-.55.99-.55 1.89v4.64h-1.82v-8.82h1.82zm12.92-1.42c.7 0 1.32.14 1.86.43.55.29.99.72 1.3 1.28.3.57.46 1.25.46 2.05v5.2h-1.81v-4.93c0-.79-.2-1.39-.59-1.81-.4-.42-.93-.64-1.62-.64-.68 0-1.22.22-1.63.64-.39.42-.59 1.02-.59 1.81v4.93h-1.82v-8.82h1.82v1.01c.3-.36.68-.64 1.14-.85.46-.2.96-.3 1.48-.3m5.34 4.51c0-.88.18-1.67.54-2.35.38-.68.88-1.21 1.51-1.58.64-.39 1.34-.58 2.11-.58.69 0 1.29.14 1.81.42.52.26.93.6 1.24 1v-1.28h1.84v8.82h-1.84v-1.31c-.31.41-.73.76-1.26 1.04s-1.14.41-1.82.41c-.76 0-1.45-.19-2.08-.57-.63-.4-1.13-.94-1.51-1.63-.36-.71-.54-1.5-.54-2.39m7.21.03c0-.6-.12-1.13-.38-1.58-.25-.45-.57-.79-.98-1.02-.4-.24-.84-.36-1.31-.36s-.9.12-1.31.36c-.41.22-.74.56-.99 1s-.37.96-.37 1.57.12 1.14.37 1.6.58.81.99 1.06c.42.23.85.35 1.31.35.47 0 .91-.12 1.31-.35.41-.24.73-.58.98-1.03.26-.45.38-.99.38-1.6m11.6 4.56c-.7 0-1.32-.12-1.88-.36-.54-.26-.97-.6-1.29-1.03-.32-.44-.49-.92-.51-1.45h1.88c.04.37.21.68.53.94.33.25.74.37 1.23.37.52 0 .91-.1 1.19-.29.29-.2.43-.46.43-.77 0-.33-.16-.57-.48-.73-.31-.16-.81-.34-1.49-.53a14 14 0 0 1-1.61-.53c-.42-.17-.78-.43-1.09-.78-.3-.36-.45-.82-.45-1.4 0-.47.14-.89.42-1.28.27-.39.67-.7 1.18-.92.52-.23 1.12-.34 1.79-.34 1 0 1.81.26 2.42.77.62.5.95 1.19.99 2.06h-1.82c-.04-.39-.2-.71-.48-.94-.29-.24-.68-.35-1.17-.35q-.72 0-1.11.27a.85.85 0 0 0-.38.72c0 .23.09.43.26.59s.37.29.62.38.61.2 1.09.34c.64.17 1.16.35 1.57.53.41.17.77.42 1.07.77.3.34.45.79.46 1.36 0 .5-.14.95-.41 1.34-.28.39-.68.7-1.19.93q-.75.33-1.77.33m4.74-4.59c0-.88.18-1.67.54-2.35.37-.68.87-1.21 1.5-1.58a4 4 0 0 1 2.12-.58q1.035 0 1.8.42c.53.26.94.6 1.25 1v-1.28h1.84v8.82h-1.84v-1.31c-.31.41-.73.76-1.26 1.04-.54.28-1.14.41-1.83.41-.75 0-1.45-.19-2.08-.57a4.3 4.3 0 0 1-1.5-1.63c-.36-.71-.54-1.5-.54-2.39m7.21.03c0-.6-.13-1.13-.38-1.58s-.57-.79-.98-1.02c-.4-.24-.84-.36-1.31-.36s-.91.12-1.31.36c-.41.22-.74.56-.99 1s-.37.96-.37 1.57.12 1.14.37 1.6.58.81.99 1.06c.41.23.85.35 1.31.35.47 0 .91-.12 1.31-.35.41-.24.73-.58.98-1.03s.38-.99.38-1.6m6.06-7.42V1198H1355v-11.84zm1.79 7.39c0-.88.18-1.67.54-2.35.37-.68.88-1.21 1.51-1.58.64-.39 1.34-.58 2.11-.58.69 0 1.29.14 1.81.42.52.26.93.6 1.24 1v-1.28h1.84v8.82h-1.84v-1.31c-.31.41-.73.76-1.26 1.04s-1.14.41-1.82.41c-.76 0-1.46-.19-2.08-.57-.63-.4-1.14-.94-1.51-1.63-.36-.71-.54-1.5-.54-2.39m7.21.03c0-.6-.12-1.13-.38-1.58-.25-.45-.57-.79-.98-1.02-.4-.24-.84-.36-1.31-.36s-.91.12-1.31.36c-.41.22-.74.56-.99 1s-.37.96-.37 1.57.12 1.14.37 1.6.58.81.99 1.06c.42.23.85.35 1.31.35.47 0 .91-.12 1.31-.35.41-.24.73-.58.98-1.03.26-.45.38-.99.38-1.6"/><path fill="#A8A8B3" d="M1158.7 1118.85c1.22 0 2.27.23 3.16.69.89.44 1.57 1.09 2.04 1.93.48.84.72 1.84.72 2.98q0 1.71-.72 2.97-.705 1.26-2.04 1.92c-.89.44-1.94.66-3.16.66h-3.47v-11.15zm0 9.95q2.16 0 3.3-1.14c.76-.76 1.14-1.84 1.14-3.21 0-1.39-.39-2.47-1.16-3.25-.75-.78-1.85-1.17-3.28-1.17h-2.01v8.77zm8.6-8.99c-.28 0-.52-.1-.71-.29a.97.97 0 0 1-.29-.7c0-.28.1-.52.29-.71s.43-.29.71-.29c.26 0 .49.1.67.29.19.19.29.43.29.71 0 .27-.1.51-.29.7a.9.9 0 0 1-.67.29m.7 1.42v8.77h-1.46v-8.77zm6.1-.14c.76 0 1.42.16 1.98.49.58.33 1 .75 1.28 1.25v-1.6h1.47v8.96q0 1.2-.51 2.13a3.6 3.6 0 0 1-1.47 1.47c-.63.35-1.37.53-2.21.53-1.15 0-2.11-.27-2.88-.82-.77-.54-1.22-1.28-1.36-2.22h1.44c.16.53.49.96.99 1.28.51.33 1.11.5 1.81.5.8 0 1.45-.25 1.95-.76.52-.5.77-1.2.77-2.11v-1.84c-.29.51-.71.94-1.28 1.28q-.84.51-1.98.51-1.17 0-2.13-.57c-.63-.39-1.13-.92-1.49-1.62q-.54-1.035-.54-2.37c0-.89.18-1.68.54-2.35.36-.68.86-1.21 1.49-1.58.64-.38 1.35-.56 2.13-.56m3.26 4.51c0-.66-.13-1.24-.4-1.73-.26-.49-.63-.86-1.09-1.12-.44-.26-.94-.4-1.48-.4-.55 0-1.04.13-1.49.39-.45.25-.81.63-1.07 1.12-.27.49-.4 1.06-.4 1.72 0 .68.13 1.26.4 1.76.26.49.62.87 1.07 1.14.45.26.94.38 1.49.38.54 0 1.04-.12 1.48-.38.46-.27.83-.65 1.09-1.14.27-.5.4-1.08.4-1.74m4.69-5.79c-.28 0-.52-.1-.71-.29a.97.97 0 0 1-.29-.7c0-.28.1-.52.29-.71s.43-.29.71-.29c.26 0 .49.1.67.29.19.19.29.43.29.71 0 .27-.1.51-.29.7a.9.9 0 0 1-.67.29m.7 1.42v8.77h-1.46v-8.77zm4.26 1.2v5.17c0 .43.09.73.27.91.18.17.5.26.94.26h1.08v1.23h-1.32c-.81 0-1.41-.19-1.82-.56s-.61-.99-.61-1.84v-5.17h-1.13v-1.2h1.13v-2.21h1.46v2.21h2.29v1.2zm12.05 2.85c0 .28-.02.57-.05.88H1192c.06.86.35 1.54.88 2.03.55.48 1.2.72 1.97.72.63 0 1.15-.14 1.57-.43.43-.3.73-.69.9-1.18h1.56c-.23.84-.7 1.53-1.4 2.06-.71.52-1.58.78-2.63.78-.83 0-1.58-.18-2.24-.56-.65-.37-1.16-.9-1.53-1.58-.38-.69-.56-1.49-.56-2.4s.18-1.7.54-2.38c.36-.69.87-1.21 1.52-1.57.66-.38 1.42-.56 2.27-.56.83 0 1.57.18 2.21.54s1.13.87 1.47 1.51c.35.63.53 1.34.53 2.14m-1.5-.3c0-.56-.13-1.03-.37-1.43-.25-.4-.58-.71-1.01-.91-.42-.21-.88-.32-1.39-.32-.74 0-1.37.23-1.89.7-.51.47-.81 1.12-.88 1.96zm11.51 5.16c-.82 0-1.57-.18-2.24-.56a4.1 4.1 0 0 1-1.57-1.58c-.37-.69-.56-1.49-.56-2.4 0-.9.2-1.69.58-2.37.39-.69.93-1.22 1.6-1.58.67-.38 1.42-.56 2.26-.56.83 0 1.58.18 2.25.56.67.36 1.2.88 1.59 1.57.39.68.59 1.47.59 2.38s-.21 1.71-.61 2.4c-.4.68-.93 1.21-1.62 1.58-.68.38-1.44.56-2.27.56m0-1.28q.78 0 1.47-.36.69-.375 1.11-1.11c.29-.49.43-1.09.43-1.79s-.14-1.3-.42-1.79c-.27-.49-.64-.86-1.08-1.09-.45-.25-.94-.37-1.46-.37-.53 0-1.02.12-1.47.37-.44.23-.79.6-1.06 1.09s-.4 1.09-.4 1.79c0 .71.13 1.32.39 1.81s.61.86 1.05 1.1.92.35 1.44.35m10.13-3.26c0-.91.18-1.7.55-2.37.36-.68.86-1.21 1.5-1.58.65-.38 1.39-.56 2.23-.56 1.07 0 1.96.26 2.65.78.71.52 1.17 1.25 1.39 2.18h-1.56a2.27 2.27 0 0 0-.88-1.27c-.43-.31-.96-.46-1.6-.46-.84 0-1.51.29-2.02.86s-.77 1.37-.77 2.42c0 1.06.26 1.87.77 2.45.51.57 1.18.86 2.02.86.64 0 1.17-.15 1.6-.45.42-.29.72-.72.88-1.28h1.56c-.23.9-.7 1.62-1.4 2.16-.71.54-1.59.8-2.64.8-.84 0-1.58-.18-2.23-.56-.64-.37-1.14-.9-1.5-1.58-.37-.68-.55-1.48-.55-2.4m14.09 4.54c-.82 0-1.57-.18-2.24-.56a4.1 4.1 0 0 1-1.57-1.58c-.37-.69-.56-1.49-.56-2.4 0-.9.19-1.69.58-2.37.39-.69.93-1.22 1.6-1.58.67-.38 1.42-.56 2.25-.56.84 0 1.59.18 2.26.56.67.36 1.2.88 1.58 1.57.4.68.6 1.47.6 2.38s-.21 1.71-.61 2.4c-.4.68-.93 1.21-1.62 1.58-.68.38-1.44.56-2.27.56m0-1.28q.78 0 1.47-.36.69-.375 1.11-1.11c.28-.49.43-1.09.43-1.79s-.14-1.3-.42-1.79c-.27-.49-.64-.86-1.09-1.09-.44-.25-.93-.37-1.45-.37-.53 0-1.03.12-1.47.37-.44.23-.79.6-1.06 1.09s-.4 1.09-.4 1.79c0 .71.13 1.32.38 1.81.27.49.62.86 1.06 1.1s.92.35 1.44.35m1.63-10.22-3.41 1.82v-1.08l3.41-2zm4.24 6.94c0-.89.18-1.68.54-2.35.36-.68.86-1.21 1.49-1.58.64-.38 1.35-.56 2.14-.56.69 0 1.32.16 1.91.48.58.31 1.03.72 1.34 1.23v-4.64h1.47V1130h-1.47v-1.65c-.29.52-.71.96-1.28 1.3-.56.33-1.23.49-1.98.49q-1.17 0-2.13-.57c-.63-.39-1.13-.92-1.49-1.62q-.54-1.035-.54-2.37m7.42.02c0-.66-.13-1.24-.4-1.73a2.8 2.8 0 0 0-1.09-1.12c-.45-.26-.94-.4-1.49-.4-.54 0-1.04.13-1.48.39-.45.25-.81.63-1.08 1.12-.26.49-.4 1.06-.4 1.72 0 .68.14 1.26.4 1.76q.405.735 1.08 1.14c.44.26.94.38 1.48.38a2.9 2.9 0 0 0 1.49-.38c.46-.27.82-.65 1.09-1.14.27-.5.4-1.08.4-1.74m4.69-5.79c-.28 0-.52-.1-.71-.29a.97.97 0 0 1-.29-.7c0-.28.1-.52.29-.71s.43-.29.71-.29c.26 0 .49.1.67.29.19.19.29.43.29.71 0 .27-.1.51-.29.7a.9.9 0 0 1-.67.29m.7 1.42v8.77h-1.46v-8.77zm6.1-.14c.75 0 1.42.16 1.98.49.58.33 1 .75 1.28 1.25v-1.6h1.47v8.96q0 1.2-.51 2.13a3.6 3.6 0 0 1-1.47 1.47c-.63.35-1.37.53-2.21.53-1.15 0-2.11-.27-2.88-.82-.77-.54-1.22-1.28-1.36-2.22h1.44c.16.53.49.96.99 1.28.5.33 1.11.5 1.81.5.8 0 1.45-.25 1.95-.76.51-.5.77-1.2.77-2.11v-1.84c-.29.51-.71.94-1.28 1.28-.56.34-1.23.51-1.98.51q-1.17 0-2.13-.57c-.63-.39-1.13-.92-1.49-1.62q-.54-1.035-.54-2.37c0-.89.18-1.68.54-2.35.36-.68.86-1.21 1.49-1.58.64-.38 1.35-.56 2.13-.56m3.26 4.51c0-.66-.13-1.24-.4-1.73a2.8 2.8 0 0 0-1.09-1.12c-.45-.26-.94-.4-1.49-.4-.54 0-1.04.13-1.48.39-.45.25-.81.63-1.08 1.12-.26.49-.4 1.06-.4 1.72 0 .68.14 1.26.4 1.76q.405.735 1.08 1.14c.44.26.94.38 1.48.38a2.9 2.9 0 0 0 1.49-.38c.46-.27.82-.65 1.09-1.14.27-.5.4-1.08.4-1.74m7.76 4.54c-.82 0-1.57-.18-2.24-.56-.66-.37-1.19-.9-1.57-1.58-.37-.69-.56-1.49-.56-2.4 0-.9.19-1.69.58-2.37.39-.69.92-1.22 1.6-1.58.67-.38 1.42-.56 2.25-.56s1.59.18 2.26.56c.67.36 1.2.88 1.58 1.57.4.68.59 1.47.59 2.38q0 1.365-.6 2.4c-.4.68-.94 1.21-1.62 1.58-.68.38-1.44.56-2.27.56m0-1.28q.78 0 1.47-.36c.46-.25.83-.62 1.1-1.11.29-.49.44-1.09.44-1.79s-.14-1.3-.42-1.79-.64-.86-1.09-1.09c-.45-.25-.93-.37-1.45-.37-.54 0-1.03.12-1.48.37-.43.23-.79.6-1.05 1.09-.27.49-.4 1.09-.4 1.79 0 .71.13 1.32.38 1.81.27.49.62.86 1.06 1.1.43.24.91.35 1.44.35m10.13-3.28c0-.89.18-1.68.54-2.35.37-.68.86-1.21 1.49-1.58.64-.38 1.36-.56 2.15-.56.68 0 1.31.16 1.9.48.59.31 1.03.72 1.34 1.23v-4.64h1.48V1130h-1.48v-1.65c-.28.52-.71.96-1.28 1.3-.56.33-1.22.49-1.98.49q-1.17 0-2.13-.57c-.63-.39-1.12-.92-1.49-1.62q-.54-1.035-.54-2.37m7.42.02c0-.66-.13-1.24-.4-1.73-.26-.49-.63-.86-1.08-1.12s-.95-.4-1.49-.4c-.55 0-1.04.13-1.49.39-.45.25-.81.63-1.07 1.12-.27.49-.4 1.06-.4 1.72 0 .68.13 1.26.4 1.76.26.49.62.87 1.07 1.14.45.26.94.38 1.49.38.54 0 1.04-.12 1.49-.38.45-.27.82-.65 1.08-1.14.27-.5.4-1.08.4-1.74m3.39-.02c0-.89.18-1.68.55-2.35.36-.68.85-1.21 1.48-1.58.64-.38 1.35-.56 2.13-.56.77 0 1.44.16 2 .49.57.33.99.75 1.27 1.25v-1.6h1.47v8.77h-1.47v-1.63c-.29.51-.72.94-1.3 1.28-.57.33-1.23.49-1.98.49-.78 0-1.49-.19-2.12-.57-.63-.39-1.12-.92-1.48-1.62-.37-.69-.55-1.48-.55-2.37m7.43.02c0-.66-.14-1.24-.4-1.73a2.8 2.8 0 0 0-1.09-1.12c-.45-.26-.95-.4-1.49-.4s-1.04.13-1.49.39c-.45.25-.8.63-1.07 1.12s-.4 1.06-.4 1.72c0 .68.13 1.26.4 1.76.27.49.62.87 1.07 1.14.45.26.95.38 1.49.38s1.04-.12 1.49-.38c.46-.27.82-.65 1.09-1.14.26-.5.4-1.08.4-1.74m11.3 4.54c-.67 0-1.28-.11-1.81-.33q-.795-.36-1.26-.96c-.31-.42-.48-.89-.52-1.43h1.51c.04.44.24.8.61 1.08.37.27.85.41 1.45.41.56 0 .99-.12 1.31-.37.32-.24.48-.55.48-.92 0-.39-.17-.67-.51-.85-.34-.19-.87-.38-1.58-.56-.65-.17-1.19-.34-1.6-.51-.41-.19-.76-.45-1.06-.79-.29-.35-.43-.81-.43-1.37 0-.45.13-.86.4-1.24.27-.37.65-.66 1.14-.88q.735-.33 1.68-.33c.97 0 1.75.24 2.35.73s.92 1.17.96 2.02h-1.46c-.03-.46-.22-.83-.56-1.1-.33-.28-.78-.42-1.34-.42-.52 0-.94.11-1.25.34-.31.22-.46.51-.46.88q0 .42.27.72c.19.18.42.33.7.44.29.11.68.23 1.19.37q.945.255 1.53.51c.4.16.73.41 1.01.74.29.33.44.76.45 1.3 0 .48-.14.91-.4 1.29-.27.39-.65.69-1.14.91-.48.22-1.03.32-1.66.32m4.71-4.56c0-.89.18-1.68.54-2.35.37-.68.86-1.21 1.49-1.58.64-.38 1.35-.56 2.13-.56.77 0 1.43.16 2 .49.56.33.99.75 1.26 1.25v-1.6h1.48v8.77h-1.48v-1.63c-.28.51-.72.94-1.29 1.28-.57.33-1.23.49-1.99.49-.78 0-1.48-.19-2.11-.57-.63-.39-1.12-.92-1.49-1.62q-.54-1.035-.54-2.37m7.42.02c0-.66-.13-1.24-.4-1.73-.26-.49-.63-.86-1.08-1.12s-.95-.4-1.49-.4c-.55 0-1.04.13-1.49.39-.45.25-.81.63-1.07 1.12-.27.49-.4 1.06-.4 1.72 0 .68.13 1.26.4 1.76.26.49.62.87 1.07 1.14.45.26.94.38 1.49.38.54 0 1.04-.12 1.49-.38.45-.27.82-.65 1.08-1.14.27-.5.4-1.08.4-1.74m5.39-7.44V1130h-1.45v-11.84zm1.94 7.42c0-.89.18-1.68.54-2.35.37-.68.86-1.21 1.49-1.58.64-.38 1.35-.56 2.13-.56.77 0 1.43.16 2 .49.56.33.99.75 1.26 1.25v-1.6h1.48v8.77h-1.48v-1.63c-.28.51-.72.94-1.29 1.28-.57.33-1.23.49-1.99.49-.78 0-1.48-.19-2.11-.57-.63-.39-1.12-.92-1.49-1.62q-.54-1.035-.54-2.37m7.42.02c0-.66-.13-1.24-.4-1.73-.26-.49-.63-.86-1.08-1.12s-.95-.4-1.49-.4c-.55 0-1.04.13-1.49.39-.45.25-.81.63-1.07 1.12-.27.49-.4 1.06-.4 1.72 0 .68.13 1.26.4 1.76.26.49.62.87 1.07 1.14.45.26.94.38 1.49.38.54 0 1.04-.12 1.49-.38.45-.27.82-.65 1.08-1.14.27-.5.4-1.08.4-1.74"/><rect width="319" height="49" x="1138.5" y="1099.5" stroke="#A8A8B3" rx="7.5"/><path fill="#A8A8B3" d="M1224.42 1061.13c-.71 0-1.37-.17-1.96-.49a3.66 3.66 0 0 1-1.37-1.39c-.32-.61-.49-1.31-.49-2.1q0-1.17.51-2.07c.34-.61.81-1.07 1.4-1.39.58-.32 1.24-.49 1.97-.49s1.39.17 1.97.49c.59.32 1.05.78 1.39 1.37.35.6.52 1.3.52 2.09s-.18 1.49-.53 2.1c-.35.6-.82 1.06-1.42 1.39-.6.32-1.26.49-1.99.49m0-1.12q.69 0 1.29-.33c.4-.21.73-.53.97-.96.25-.43.38-.95.38-1.57s-.13-1.14-.37-1.57-.56-.74-.95-.95a2.66 2.66 0 0 0-1.27-.32c-.47 0-.9.11-1.29.32-.38.21-.69.52-.93.95-.23.43-.35.95-.35 1.57 0 .63.12 1.15.34 1.58.23.43.54.75.92.97.39.2.81.31 1.26.31m12.42-6.68v7.67h-1.28v-1.13c-.24.39-.58.7-1.02.92-.43.21-.9.32-1.43.32-.59 0-1.13-.12-1.61-.36a2.83 2.83 0 0 1-1.13-1.12c-.27-.5-.41-1.1-.41-1.81v-4.49h1.26v4.32c0 .76.19 1.34.58 1.75.38.41.9.61 1.57.61.68 0 1.21-.21 1.61-.63.39-.42.58-1.04.58-1.84v-4.21zm12.88 3.54c0 .24-.01.5-.04.77h-6.13c.04.76.3 1.35.77 1.78.47.42 1.05.63 1.72.63.55 0 1.01-.13 1.37-.38.37-.26.64-.61.78-1.04h1.38c-.21.74-.62 1.34-1.24 1.81-.61.46-1.38.69-2.29.69-.73 0-1.38-.17-1.96-.49-.57-.33-1.02-.79-1.35-1.39-.32-.61-.49-1.31-.49-2.1s.16-1.49.48-2.09c.32-.59.76-1.05 1.33-1.37.58-.32 1.24-.49 1.99-.49.73 0 1.37.16 1.93.48s.99.75 1.29 1.31c.31.55.46 1.18.46 1.88m-1.32-.27c0-.48-.1-.9-.32-1.24-.21-.36-.51-.62-.88-.8a2.6 2.6 0 0 0-1.22-.28 2.4 2.4 0 0 0-1.65.62c-.45.41-.7.98-.77 1.7zm6.74-3.41c.93 0 1.69.28 2.27.85.58.56.87 1.37.87 2.44v4.52h-1.26v-4.34c0-.77-.2-1.35-.58-1.75-.38-.41-.9-.62-1.57-.62s-1.2.21-1.61.63c-.39.42-.58 1.04-.58 1.84v4.24h-1.28v-7.67h1.28v1.09c.25-.39.59-.7 1.02-.91.44-.21.92-.32 1.44-.32m6.77 1.19v4.52c0 .37.08.64.24.8.16.15.43.22.83.22h.93v1.08h-1.14c-.71 0-1.25-.16-1.6-.49-.36-.33-.53-.86-.53-1.61v-4.52h-1v-1.05h1v-1.93h1.27v1.93h2v1.05zm4.82.19c.22-.43.54-.78.95-1.02q.63-.36 1.53-.36v1.31h-.34c-1.43 0-2.14.78-2.14 2.33v4.17h-1.27v-7.67h1.27zm10.95 2.3c0 .24-.01.5-.04.77h-6.13c.04.76.3 1.35.77 1.78.47.42 1.05.63 1.72.63.55 0 1.01-.13 1.37-.38.37-.26.63-.61.78-1.04h1.38c-.21.74-.62 1.34-1.24 1.81-.61.46-1.38.69-2.29.69-.73 0-1.38-.17-1.96-.49-.57-.33-1.02-.79-1.35-1.39-.32-.61-.49-1.31-.49-2.1s.16-1.49.48-2.09c.32-.59.76-1.05 1.33-1.37.58-.32 1.24-.49 1.99-.49.73 0 1.37.16 1.93.48s.99.75 1.29 1.31c.31.55.46 1.18.46 1.88m-1.32-.27c0-.48-.1-.9-.32-1.24-.21-.36-.51-.62-.88-.8a2.6 2.6 0 0 0-1.22-.28 2.4 2.4 0 0 0-1.65.62c-.45.41-.71.98-.77 1.7zm13.73.27c0 .24-.01.5-.04.77h-6.13c.05.76.3 1.35.77 1.78.48.42 1.05.63 1.72.63.55 0 1.01-.13 1.37-.38.38-.26.64-.61.79-1.04h1.37c-.21.74-.62 1.34-1.23 1.81-.62.46-1.38.69-2.3.69-.73 0-1.38-.17-1.96-.49-.57-.33-1.02-.79-1.34-1.39-.33-.61-.49-1.31-.49-2.1s.16-1.49.47-2.09c.32-.59.76-1.05 1.33-1.37.58-.32 1.24-.49 1.99-.49.73 0 1.37.16 1.93.48s.99.75 1.29 1.31c.31.55.46 1.18.46 1.88m-1.31-.27c0-.48-.11-.9-.32-1.24-.22-.36-.51-.62-.89-.8-.36-.19-.77-.28-1.21-.28-.65 0-1.2.21-1.66.62-.44.41-.7.98-.77 1.7zm12.22-3.41c.6 0 1.13.12 1.6.38.46.24.83.61 1.1 1.1.27.5.41 1.1.41 1.81v4.52h-1.26v-4.34c0-.77-.19-1.35-.57-1.75-.38-.41-.89-.62-1.53-.62-.66 0-1.19.22-1.58.65-.39.42-.59 1.03-.59 1.83v4.23h-1.26v-4.34c0-.77-.19-1.35-.57-1.75-.38-.41-.89-.62-1.53-.62-.66 0-1.19.22-1.58.65-.39.42-.59 1.03-.59 1.83v4.23h-1.27v-7.67h1.27v1.1c.25-.4.59-.71 1.01-.92.43-.21.9-.32 1.41-.32.65 0 1.21.14 1.71.43.49.29.86.72 1.11 1.28.21-.55.56-.97 1.06-1.26q.735-.45 1.65-.45m15.74.14v7.67h-1.28v-1.13c-.24.39-.58.7-1.02.92-.43.21-.91.32-1.43.32-.6 0-1.13-.12-1.61-.36a2.83 2.83 0 0 1-1.13-1.12c-.27-.5-.41-1.1-.41-1.81v-4.49h1.26v4.32c0 .76.19 1.34.58 1.75.38.41.9.61 1.56.61.68 0 1.22-.21 1.61-.63.4-.42.59-1.04.59-1.84v-4.21zm11.37-.14c.6 0 1.13.12 1.6.38.47.24.83.61 1.1 1.1.28.5.41 1.1.41 1.81v4.52h-1.26v-4.34c0-.77-.19-1.35-.57-1.75-.38-.41-.89-.62-1.53-.62-.66 0-1.19.22-1.58.65-.39.42-.59 1.03-.59 1.83v4.23h-1.26v-4.34c0-.77-.19-1.35-.57-1.75-.38-.41-.89-.62-1.53-.62-.66 0-1.19.22-1.58.65-.39.42-.59 1.03-.59 1.83v4.23h-1.27v-7.67h1.27v1.1c.25-.4.59-.71 1.01-.92.43-.21.9-.32 1.41-.32.65 0 1.22.14 1.71.43.5.29.86.72 1.11 1.28.21-.55.57-.97 1.06-1.26q.75-.45 1.65-.45m4.72 3.95c0-.79.16-1.47.48-2.06.32-.6.75-1.06 1.3-1.39a3.7 3.7 0 0 1 1.86-.49c.68 0 1.26.15 1.75.44.5.29.87.65 1.11 1.09v-1.4h1.29v7.67h-1.29v-1.43c-.25.45-.63.82-1.13 1.12-.5.29-1.08.44-1.74.44-.68 0-1.3-.17-1.85-.51-.55-.33-.98-.81-1.3-1.41q-.48-.915-.48-2.07m6.5.01c0-.58-.12-1.08-.35-1.51s-.55-.76-.95-.98a2.44 2.44 0 0 0-1.3-.35c-.48 0-.91.11-1.31.33-.39.23-.7.55-.93.98-.24.43-.35.94-.35 1.52s.11 1.1.35 1.54q.345.645.93.99c.4.22.83.34 1.31.34.47 0 .91-.12 1.3-.34.4-.23.72-.56.95-.99.23-.44.35-.95.35-1.53m9.89 3.98c-.59 0-1.12-.1-1.58-.3q-.705-.3-1.11-.84c-.27-.36-.42-.78-.45-1.24h1.32c.04.38.21.69.53.93.33.25.75.37 1.28.37.48 0 .86-.11 1.14-.32.28-.22.42-.49.42-.82s-.15-.58-.44-.74c-.3-.17-.76-.33-1.39-.49-.57-.15-1.04-.3-1.4-.45-.35-.15-.66-.38-.92-.68-.26-.31-.38-.71-.38-1.21 0-.39.11-.75.35-1.07.23-.33.56-.59.99-.77q.645-.3 1.47-.3c.85 0 1.54.22 2.06.65s.8 1.01.84 1.76h-1.27c-.03-.4-.2-.72-.49-.97-.29-.24-.69-.36-1.18-.36-.46 0-.82.1-1.09.29-.27.2-.41.46-.41.77q0 .39.24.63c.17.16.37.29.62.4.25.09.59.2 1.03.32q.825.225 1.35.45c.34.14.64.35.88.64.25.29.38.67.39 1.13 0 .42-.12.8-.35 1.14-.23.33-.56.6-.99.8-.42.18-.91.28-1.46.28m4.12-3.99c0-.79.16-1.47.48-2.06.32-.6.75-1.06 1.3-1.39a3.7 3.7 0 0 1 1.86-.49c.67 0 1.26.15 1.75.44.5.29.87.65 1.11 1.09v-1.4h1.29v7.67h-1.29v-1.43c-.25.45-.63.82-1.14 1.12-.49.29-1.07.44-1.73.44-.68 0-1.3-.17-1.85-.51-.55-.33-.98-.81-1.3-1.41q-.48-.915-.48-2.07m6.5.01c0-.58-.12-1.08-.35-1.51-.24-.43-.55-.76-.95-.98-.4-.24-.83-.35-1.31-.35-.47 0-.91.11-1.3.33-.39.23-.7.55-.94.98-.23.43-.35.94-.35 1.52s.12 1.1.35 1.54c.24.43.55.76.94.99.39.22.83.34 1.3.34.48 0 .91-.12 1.31-.34.4-.23.71-.56.95-.99.23-.44.35-.95.35-1.53m4.71-6.51V1061h-1.27v-10.36zm1.7 6.5c0-.79.16-1.47.47-2.06.32-.6.76-1.06 1.31-1.39a3.7 3.7 0 0 1 1.86-.49c.67 0 1.25.15 1.75.44.49.29.86.65 1.1 1.09v-1.4h1.29v7.67h-1.29v-1.43c-.25.45-.63.82-1.13 1.12-.49.29-1.07.44-1.74.44-.68 0-1.29-.17-1.84-.51a3.57 3.57 0 0 1-1.31-1.41c-.31-.61-.47-1.3-.47-2.07m6.49.01c0-.58-.11-1.08-.35-1.51-.23-.43-.55-.76-.95-.98-.39-.24-.82-.35-1.3-.35s-.91.11-1.3.33c-.39.23-.71.55-.94.98s-.35.94-.35 1.52.12 1.1.35 1.54c.23.43.55.76.94.99.39.22.82.34 1.3.34s.91-.12 1.3-.34c.4-.23.72-.56.95-.99.24-.44.35-.95.35-1.53"/><path stroke="#A8A8B3" d="M1139 1056.5h75M1383 1056.5h75"/><path fill="#F44336" d="M1182 982c1.62 0 3.1.554 4.29 1.474l3.63-3.47A11.92 11.92 0 0 0 1182 977c-4.61 0-8.6 2.6-10.61 6.41l4.04 3.193c.98-2.684 3.55-4.603 6.57-4.603"/><path fill="#2196F3" d="M1193.9 990.502c.06-.492.1-.993.1-1.502 0-.858-.09-1.693-.26-2.5H1182v5h6.49a7.1 7.1 0 0 1-2.65 3.319l4.06 3.205a12.03 12.03 0 0 0 4-7.522"/><path fill="#FFC107" d="M1175 989c0-.843.16-1.648.43-2.397l-4.04-3.193A11.84 11.84 0 0 0 1170 989c0 1.997.5 3.876 1.36 5.533l4.05-3.197A7 7 0 0 1 1175 989"/><path fill="#00B060" d="M1182 996a6.99 6.99 0 0 1-6.59-4.664l-4.05 3.197c2 3.84 6.01 6.467 10.64 6.467 3.03 0 5.79-1.125 7.9-2.976l-4.06-3.205A6.84 6.84 0 0 1 1182 996"/><path fill="#000" d="M1182 1000.75c-3.53 0-6.71-1.457-8.95-3.779 2.2 2.467 5.39 4.029 8.95 4.029 3.53 0 6.7-1.531 8.89-3.959a12.4 12.4 0 0 1-8.89 3.709M1182 991.25v.25h6.49l.1-.25z" opacity=".1"/><path fill="#E6E6E6" d="M1193.99 989.147c.01-.049.01-.098.01-.147v-.041c0 .063-.01.125-.01.188"/><path fill="#FEFEFE" d="M1182 986.5v.25h11.79a2 2 0 0 1-.05-.25z" opacity=".2"/><path fill="url(#q)" d="M1193.74 986.5H1182v5h6.49c-1.01 2.622-3.51 4.5-6.49 4.5-3.87 0-7-3.134-7-7s3.13-7 7-7c1.4 0 2.69.431 3.79 1.141.17.109.34.211.5.333l3.63-3.47-.08-.063A11.92 11.92 0 0 0 1182 977c-6.63 0-12 5.373-12 12s5.37 12 12 12c6.12 0 11.16-4.581 11.9-10.498.06-.492.1-.993.1-1.502 0-.858-.09-1.693-.26-2.5"/><path fill="#000" d="M1185.79 982.891c-1.1-.71-2.39-1.141-3.79-1.141-3.87 0-7 3.134-7 7v.117a7 7 0 0 1 7-6.867c1.4 0 2.69.431 3.79 1.141.17.109.34.211.5.333l3.63-3.47-3.63 3.22c-.16-.122-.33-.224-.5-.333" opacity=".1"/><path fill="#FEFEFE" d="M1182 977.25c2.98 0 5.68 1.098 7.78 2.892l.14-.138-.11-.096A11.82 11.82 0 0 0 1182 977c-6.63 0-12 5.373-12 12 0 .042.01.083.01.125.06-6.569 5.4-11.875 11.99-11.875" opacity=".2"/><path fill="#29292E" d="M1204.59 989.416q0-1.632.75-2.928a5.46 5.46 0 0 1 2.07-2.016 5.74 5.74 0 0 1 2.86-.736q1.785 0 3.15.88c.93.576 1.6 1.397 2.02 2.464h-2.19q-.435-.88-1.2-1.312c-.51-.288-1.11-.432-1.78-.432-.73 0-1.39.165-1.97.496-.57.331-1.03.805-1.36 1.424q-.48.929-.48 2.16t.48 2.16c.33.619.79 1.099 1.36 1.44.58.331 1.24.496 1.97.496.67 0 1.27-.144 1.78-.432q.765-.432 1.2-1.312h2.19c-.42 1.067-1.09 1.888-2.02 2.464q-1.365.864-3.15.864c-1.04 0-2-.24-2.86-.72a5.6 5.6 0 0 1-2.07-2.032q-.75-1.296-.75-2.928m14.81-1.952c.27-.448.62-.795 1.06-1.04.44-.256.97-.384 1.58-.384v1.888h-.46c-.72 0-1.26.181-1.64.544q-.54.544-.54 1.888V995h-1.82v-8.816h1.82zm5.24-2.448a1.136 1.136 0 0 1-1.16-1.168 1.14 1.14 0 0 1 1.16-1.168c.32 0 .6.112.82.336s.34.501.34.832-.12.608-.34.832-.5.336-.82.336m.9 1.168V995h-1.82v-8.816zm10.47 4.192q0 .496-.06.896h-6.74c.06.704.32 1.269.79 1.696s1.04.64 1.73.64c.98 0 1.67-.411 2.08-1.232h1.96c-.26.811-.75 1.477-1.45 2-.69.512-1.56.768-2.59.768-.85 0-1.6-.187-2.28-.56a4.14 4.14 0 0 1-1.56-1.6c-.38-.693-.56-1.493-.56-2.4q0-1.36.54-2.384c.37-.693.89-1.227 1.55-1.6q1.005-.56 2.31-.56 1.245 0 2.22.544c.65.363 1.16.875 1.52 1.536q.54.977.54 2.256m-1.9-.576q-.015-1.008-.72-1.616t-1.74-.608q-.945 0-1.62.608c-.45.395-.71.933-.8 1.616zm11.06 5.344c-.7 0-1.32-.123-1.88-.368q-.81-.384-1.29-1.024a2.6 2.6 0 0 1-.51-1.456h1.88c.04.373.21.688.53.944q.495.368 1.23.368c.52 0 .91-.096 1.19-.288.29-.203.43-.459.43-.768q0-.496-.48-.736c-.31-.16-.81-.336-1.49-.528-.66-.181-1.2-.357-1.61-.528a2.9 2.9 0 0 1-1.09-.784q-.45-.528-.45-1.392 0-.704.42-1.28c.27-.395.67-.704 1.18-.928.52-.224 1.12-.336 1.79-.336 1 0 1.81.256 2.42.768q.93.751.99 2.064h-1.82q-.06-.592-.48-.944-.435-.352-1.17-.352-.72 0-1.11.272a.85.85 0 0 0-.38.72c0 .235.08.432.26.592.17.16.37.288.62.384.24.085.61.197 1.09.336.64.171 1.16.347 1.57.528.41.171.77.427 1.07.768s.45.795.46 1.36c0 .501-.14.949-.41 1.344-.28.395-.68.704-1.19.928q-.75.336-1.77.336m13.33-8.96V995h-1.83v-1.04c-.29.363-.66.651-1.13.864-.46.203-.95.304-1.48.304-.69 0-1.31-.144-1.87-.432a3.2 3.2 0 0 1-1.29-1.28c-.31-.565-.47-1.248-.47-2.048v-5.184h1.81v4.912c0 .789.2 1.397.59 1.824q.6.624 1.62.624c.68 0 1.22-.208 1.61-.624.41-.427.61-1.035.61-1.824v-4.912zm1.8 4.368q0-1.327.54-2.352.555-1.024 1.5-1.584a4.05 4.05 0 0 1 2.12-.576q1.035 0 1.8.416c.53.267.94.603 1.25 1.008v-1.28h1.84V995h-1.84v-1.312q-.465.624-1.26 1.04c-.54.277-1.14.416-1.83.416-.75 0-1.45-.192-2.08-.576a4.24 4.24 0 0 1-1.5-1.632q-.54-1.056-.54-2.384m7.21.032c0-.608-.13-1.136-.38-1.584s-.57-.789-.98-1.024c-.4-.235-.84-.352-1.31-.352s-.91.117-1.31.352q-.615.336-.99 1.008c-.25.437-.37.96-.37 1.568s.12 1.141.37 1.6q.375.688.99 1.056c.41.235.85.352 1.31.352.47 0 .91-.117 1.31-.352.41-.235.73-.576.98-1.024.25-.459.38-.992.38-1.6m11.59 4.56c-.69 0-1.31-.123-1.87-.368q-.81-.384-1.29-1.024a2.6 2.6 0 0 1-.52-1.456h1.89c.03.373.21.688.53.944q.495.368 1.23.368c.51 0 .91-.096 1.19-.288.28-.203.43-.459.43-.768q0-.496-.48-.736c-.31-.16-.81-.336-1.49-.528q-.99-.272-1.62-.528a2.85 2.85 0 0 1-1.08-.784q-.45-.528-.45-1.392c0-.469.14-.896.41-1.28.28-.395.68-.704 1.19-.928.52-.224 1.12-.336 1.79-.336 1 0 1.81.256 2.42.768q.915.751.99 2.064h-1.83a1.29 1.29 0 0 0-.48-.944c-.28-.235-.67-.352-1.16-.352q-.72 0-1.11.272a.85.85 0 0 0-.38.72c0 .235.08.432.25.592q.255.24.63.384c.24.085.61.197 1.09.336q.96.257 1.56.528.63.257 1.08.768c.29.341.45.795.46 1.36q0 .751-.42 1.344c-.27.395-.67.704-1.18.928-.5.224-1.09.336-1.78.336m4.74-4.592c0-.885.18-1.669.55-2.352q.555-1.024 1.5-1.584a4 4 0 0 1 2.11-.576c.7 0 1.3.139 1.81.416.52.267.94.603 1.25 1.008v-1.28h1.84V995h-1.84v-1.312c-.31.416-.73.763-1.27 1.04-.53.277-1.14.416-1.82.416-.76 0-1.45-.192-2.08-.576a4.24 4.24 0 0 1-1.5-1.632c-.37-.704-.55-1.499-.55-2.384m7.22.032q0-.912-.39-1.584a2.57 2.57 0 0 0-.97-1.024 2.6 2.6 0 0 0-1.31-.352q-.705 0-1.32.352-.6.336-.99 1.008c-.24.437-.37.96-.37 1.568s.13 1.141.37 1.6q.39.688.99 1.056.63.352 1.32.352c.47 0 .9-.117 1.31-.352.4-.235.73-.576.97-1.024q.39-.688.39-1.6m6.06-7.424V995h-1.83v-11.84zm1.78 7.392c0-.885.19-1.669.55-2.352q.555-1.024 1.5-1.584a4.04 4.04 0 0 1 2.11-.576c.7 0 1.3.139 1.81.416.53.267.94.603 1.25 1.008v-1.28h1.84V995h-1.84v-1.312q-.465.624-1.26 1.04c-.54.277-1.14.416-1.83.416-.75 0-1.45-.192-2.08-.576a4.24 4.24 0 0 1-1.5-1.632c-.36-.704-.55-1.499-.55-2.384m7.22.032c0-.608-.13-1.136-.38-1.584s-.57-.789-.98-1.024c-.4-.235-.84-.352-1.31-.352s-.91.117-1.31.352c-.41.224-.74.56-1 1.008q-.36.656-.36 1.568t.36 1.6c.26.459.59.811 1 1.056.41.235.85.352 1.31.352.47 0 .91-.117 1.31-.352.41-.235.73-.576.98-1.024.25-.459.38-.992.38-1.6m7.78 0c0-.907.19-1.701.55-2.384q.555-1.04 1.53-1.6c.66-.373 1.4-.56 2.24-.56q1.605 0 2.64.768c.71.501 1.18 1.221 1.43 2.16h-1.97a2.1 2.1 0 0 0-.77-1.024c-.35-.245-.79-.368-1.33-.368-.74 0-1.34.267-1.79.8-.43.523-.65 1.259-.65 2.208s.22 1.691.65 2.224c.45.533 1.05.8 1.79.8q1.59 0 2.1-1.392h1.97q-.39 1.344-1.44 2.144c-.71.523-1.58.784-2.63.784-.84 0-1.58-.187-2.24-.56a4.07 4.07 0 0 1-1.53-1.6c-.36-.693-.55-1.493-.55-2.4m14.03 4.56c-.83 0-1.58-.187-2.26-.56a4.1 4.1 0 0 1-1.58-1.6c-.38-.693-.58-1.493-.58-2.4q0-1.344.6-2.384c.39-.693.93-1.227 1.61-1.6s1.45-.56 2.29-.56 1.61.187 2.29.56 1.22.907 1.61 1.6q.6 1.04.6 2.384c0 .896-.21 1.691-.61 2.384a4.26 4.26 0 0 1-1.67 1.616c-.69.373-1.46.56-2.3.56m0-1.584c.47 0 .91-.112 1.31-.336.42-.224.75-.56 1.01-1.008s.38-.992.38-1.632q0-.96-.36-1.616c-.25-.448-.57-.784-.98-1.008a2.7 2.7 0 0 0-1.31-.336c-.47 0-.91.112-1.31.336s-.71.56-.95 1.008c-.23.437-.35.976-.35 1.616q0 1.423.72 2.208c.49.512 1.1.768 1.84.768m17.05-7.52q1.035 0 1.86.432t1.29 1.28q.48.848.48 2.048v5.2h-1.8v-4.928q0-1.184-.6-1.808c-.39-.427-.93-.64-1.61-.64-.69 0-1.23.213-1.63.64q-.6.624-.6 1.808V995h-1.8v-4.928q0-1.184-.6-1.808c-.39-.427-.93-.64-1.61-.64-.69 0-1.23.213-1.63.64q-.6.624-.6 1.808V995h-1.82v-8.816h1.82v1.008q.45-.544 1.14-.848a3.6 3.6 0 0 1 1.47-.304c.71 0 1.33.149 1.89.448a3.1 3.1 0 0 1 1.28 1.296c.27-.533.68-.955 1.25-1.264.56-.32 1.17-.48 1.82-.48m13.93 9.104q-1.245 0-2.25-.56a4.2 4.2 0 0 1-1.59-1.6q-.57-1.04-.57-2.4c0-.896.2-1.691.59-2.384.4-.693.93-1.227 1.62-1.6q1.02-.56 2.28-.56c.85 0 1.61.187 2.29.56.69.373 1.22.907 1.62 1.6.39.693.59 1.488.59 2.384s-.2 1.691-.61 2.384c-.4.693-.96 1.232-1.66 1.616q-1.035.56-2.31.56m0-1.584q.705 0 1.32-.336c.41-.224.75-.56 1-1.008q.39-.672.39-1.632c0-.64-.12-1.179-.37-1.616a2.4 2.4 0 0 0-.98-1.008c-.4-.224-.84-.336-1.31-.336s-.9.112-1.31.336c-.39.224-.71.56-.94 1.008q-.36.656-.36 1.616 0 1.423.72 2.208c.5.512 1.11.768 1.84.768m18.59-6.48q-.435-.832-1.2-1.248c-.51-.288-1.11-.432-1.78-.432-.73 0-1.39.165-1.97.496-.57.331-1.03.8-1.36 1.408q-.48.912-.48 2.112t.48 2.128c.33.608.79 1.077 1.36 1.408.58.331 1.24.496 1.97.496.99 0 1.8-.277 2.42-.832s1-1.307 1.13-2.256h-4.17v-1.456h6.13v1.424a5.5 5.5 0 0 1-.93 2.384 5.46 5.46 0 0 1-1.94 1.744q-1.185.64-2.64.64c-1.04 0-2-.24-2.86-.72a5.6 5.6 0 0 1-2.07-2.032q-.75-1.296-.75-2.928t.75-2.928a5.46 5.46 0 0 1 2.07-2.016 5.74 5.74 0 0 1 2.86-.736q1.785 0 3.15.88c.93.576 1.6 1.397 2.02 2.464zm8.15 8.064c-.83 0-1.58-.187-2.26-.56a4.1 4.1 0 0 1-1.58-1.6c-.38-.693-.58-1.493-.58-2.4q0-1.344.6-2.384c.39-.693.93-1.227 1.61-1.6s1.45-.56 2.29-.56 1.6.187 2.29.56c.68.373 1.22.907 1.61 1.6q.6 1.04.6 2.384c0 .896-.21 1.691-.61 2.384a4.26 4.26 0 0 1-1.67 1.616c-.69.373-1.46.56-2.3.56m0-1.584c.47 0 .91-.112 1.31-.336.42-.224.75-.56 1.01-1.008s.38-.992.38-1.632q0-.96-.36-1.616a2.55 2.55 0 0 0-.98-1.008 2.7 2.7 0 0 0-1.31-.336c-.47 0-.91.112-1.31.336s-.71.56-.95 1.008c-.23.437-.35.976-.35 1.616q0 1.423.72 2.208c.49.512 1.1.768 1.84.768m10.2 1.584q-1.245 0-2.25-.56a4.15 4.15 0 0 1-1.59-1.6q-.57-1.04-.57-2.4c0-.896.19-1.691.59-2.384.39-.693.93-1.227 1.61-1.6.69-.373 1.45-.56 2.29-.56s1.61.187 2.29.56a4.15 4.15 0 0 1 1.62 1.6c.39.693.59 1.488.59 2.384s-.2 1.691-.61 2.384a4.3 4.3 0 0 1-1.66 1.616q-1.05.56-2.31.56m0-1.584c.47 0 .91-.112 1.31-.336.42-.224.76-.56 1.01-1.008q.39-.672.39-1.632c0-.64-.13-1.179-.37-1.616-.25-.448-.57-.784-.98-1.008-.4-.224-.84-.336-1.31-.336s-.91.112-1.31.336-.71.56-.95 1.008c-.23.437-.35.976-.35 1.616q0 1.423.72 2.208c.49.512 1.11.768 1.84.768m9.93-7.52c.69 0 1.29.139 1.81.416.53.267.95.603 1.25 1.008v-1.28h1.84v8.96q0 1.216-.51 2.16c-.34.64-.84 1.141-1.49 1.504-.64.363-1.41.544-2.3.544-1.2 0-2.19-.283-2.98-.848-.79-.555-1.24-1.312-1.34-2.272h1.8c.14.459.44.827.88 1.104.46.288 1.01.432 1.64.432q1.095 0 1.77-.672.69-.672.69-1.952v-1.472q-.465.624-1.26 1.056c-.53.277-1.12.416-1.8.416-.76 0-1.47-.192-2.11-.576a4.24 4.24 0 0 1-1.5-1.632c-.37-.704-.55-1.499-.55-2.384s.18-1.669.55-2.352q.555-1.024 1.5-1.584a4.04 4.04 0 0 1 2.11-.576m3.06 4.544c0-.608-.13-1.136-.38-1.584a2.67 2.67 0 0 0-.98-1.024 2.6 2.6 0 0 0-1.31-.352c-.47 0-.91.117-1.31.352-.41.224-.74.56-1 1.008q-.36.656-.36 1.568t.36 1.6c.26.459.59.811 1 1.056.41.235.85.352 1.31.352.47 0 .9-.117 1.31-.352.4-.235.73-.576.98-1.024.25-.459.38-.992.38-1.6m6.06-7.424V995h-1.82v-11.84zm10.47 7.216q0 .496-.06.896h-6.74c.06.704.32 1.269.79 1.696s1.04.64 1.73.64c.98 0 1.67-.411 2.08-1.232h1.96c-.26.811-.75 1.477-1.45 2-.7.512-1.56.768-2.59.768-.85 0-1.6-.187-2.28-.56a4.14 4.14 0 0 1-1.56-1.6c-.38-.693-.56-1.493-.56-2.4q0-1.36.54-2.384c.37-.693.89-1.227 1.55-1.6q1.005-.56 2.31-.56 1.245 0 2.22.544c.65.363 1.16.875 1.52 1.536q.54.977.54 2.256m-1.9-.576q-.015-1.008-.72-1.616t-1.74-.608q-.945 0-1.62.608c-.45.395-.71.933-.8 1.616z"/><rect width="319" height="49" x="1138.5" y="964.5" stroke="#A8A8B3" rx="7.5"/><path fill="#29292E" d="M1221 858.999h4.47v21.275H1221zM1243.59 872.618q0 .086-.09 1.204h-11.67c.21.956.71 1.711 1.49 2.265.79.555 1.76.832 2.93.832.8 0 1.51-.115 2.12-.344a5.4 5.4 0 0 0 1.75-1.147l2.38 2.58c-1.46 1.663-3.58 2.495-6.37 2.495-1.74 0-3.28-.335-4.61-1.004-1.34-.688-2.37-1.634-3.1-2.838s-1.09-2.571-1.09-4.1c0-1.51.35-2.867 1.06-4.072a7.56 7.56 0 0 1 2.95-2.838c1.27-.688 2.67-1.032 4.22-1.032 1.51 0 2.88.325 4.1.975a7.03 7.03 0 0 1 2.87 2.809c.7 1.205 1.06 2.609 1.06 4.215m-8-4.616q-1.53 0-2.55.86c-.69.574-1.11 1.357-1.27 2.351h7.6q-.225-1.463-1.26-2.322-1.035-.89-2.52-.889M1255.37 879.528c-.44.325-.99.573-1.64.746-.63.152-1.3.229-2 .229-1.84 0-3.26-.468-4.28-1.405-.99-.937-1.49-2.313-1.49-4.129v-6.336h-2.38v-3.441h2.38v-3.756h4.48v3.756h3.84v3.441h-3.84v6.279q0 .975.48 1.519.525.517 1.44.517c.7 0 1.31-.192 1.8-.574zM1276.49 864.619c1.93 0 3.46.573 4.58 1.72 1.15 1.128 1.72 2.829 1.72 5.104v8.831h-4.47v-8.143c0-1.224-.26-2.132-.77-2.724-.5-.612-1.22-.918-2.15-.918-1.05 0-1.89.344-2.5 1.033-.61.669-.92 1.672-.92 3.01v7.742h-4.47v-8.143c0-2.428-.97-3.642-2.92-3.642-1.03 0-1.86.344-2.47 1.033-.61.669-.92 1.672-.92 3.01v7.742h-4.47v-15.426h4.27v1.778a5.7 5.7 0 0 1 2.1-1.491c.84-.344 1.75-.516 2.75-.516 1.09 0 2.07.219 2.95.659a5.1 5.1 0 0 1 2.12 1.864 6.4 6.4 0 0 1 2.38-1.864c.98-.44 2.04-.659 3.19-.659M1300.93 872.618c0 .057-.02.459-.08 1.204h-11.67c.21.956.71 1.711 1.49 2.265.78.555 1.76.832 2.92.832.81 0 1.51-.115 2.13-.344a5.4 5.4 0 0 0 1.75-1.147l2.37 2.58q-2.175 2.495-6.36 2.495-2.61 0-4.62-1.004c-1.33-.688-2.37-1.634-3.09-2.838-.73-1.204-1.09-2.571-1.09-4.1 0-1.51.35-2.867 1.06-4.072a7.5 7.5 0 0 1 2.95-2.838c1.26-.688 2.67-1.032 4.22-1.032 1.51 0 2.87.325 4.1.975a6.95 6.95 0 0 1 2.86 2.809c.71 1.205 1.06 2.609 1.06 4.215m-8-4.616q-1.515 0-2.55.86t-1.26 2.351h7.6q-.225-1.463-1.26-2.322c-.69-.593-1.53-.889-2.53-.889"/><path fill="url(#r)" d="m1327.09 864.848-3.07 15.426h-4.25l.29-1.52c-1.28 1.166-2.86 1.749-4.73 1.749q-1.8 0-3.33-.832-1.515-.831-2.43-2.379c-.6-1.052-.89-2.285-.89-3.699 0-1.701.37-3.23 1.12-4.588q1.14-2.064 3.09-3.211c1.3-.783 2.74-1.175 4.3-1.175 2.37 0 4.05.774 5.02 2.322l.4-2.093zm-10.38 11.956c.88 0 1.66-.21 2.35-.631a4.4 4.4 0 0 0 1.6-1.806c.39-.764.58-1.644.58-2.638 0-1.051-.32-1.882-.95-2.494q-.915-.918-2.58-.918c-.88 0-1.66.22-2.35.66-.69.42-1.22 1.013-1.61 1.777q-.57 1.147-.57 2.638c0 1.052.31 1.883.92 2.495q.945.917 2.61.917"/><path fill="url(#s)" d="M1332.63 880.503q-2.01 0-3.81-.43c-1.19-.306-2.11-.698-2.78-1.176l1.72-3.24q1.005.66 2.43 1.061c.98.268 1.95.402 2.93.402 1.01 0 1.77-.125 2.26-.373q.75-.401.75-1.118 0-.574-.66-.832c-.44-.172-1.15-.353-2.12-.545-1.11-.21-2.03-.439-2.75-.688a4.8 4.8 0 0 1-1.87-1.204c-.51-.573-.77-1.348-.77-2.322 0-1.702.71-3.03 2.12-3.986 1.43-.955 3.31-1.433 5.62-1.433 1.07 0 2.11.114 3.13.344q1.515.343 2.58.946l-1.61 3.268q-1.89-1.175-4.56-1.175c-.97 0-1.72.143-2.24.43-.49.287-.74.65-.74 1.09q0 .602.66.888c.44.172 1.17.364 2.21.574 1.09.21 1.97.439 2.66.688.71.229 1.32.621 1.84 1.175.51.555.77 1.31.77 2.266 0 1.72-.72 3.048-2.18 3.985-1.43.937-3.29 1.405-5.59 1.405"/><path fill="url(#t)" d="m1352.59 871.557 5.31 8.717h-5.19l-3.67-5.993-2.72 2.265-.75 3.728h-4.47l4.24-21.275h4.47l-2.38 11.899 7.4-6.05h5.82z"/><path stroke="url(#u)" stroke-width="4.301" d="M1302.08 855.902v-7.168a5.737 5.737 0 0 1 5.74-5.734h61.64c3.17 0 5.74 2.567 5.74 5.734v40.141a5.737 5.737 0 0 1-5.74 5.734h-10.03l3.35 15.651c.29 1.368-1.34 2.303-2.37 1.354l-15.32-14.137h-37.27a5.74 5.74 0 0 1-5.74-5.735v-2.867"/></g></g><path fill="#fff" d="M1465.46 275v-42.656h12.04q5.565 0 9.84 2.461c2.86 1.64 5.05 3.974 6.6 7.002q2.34 4.541 2.37 10.429v2.725c0 4.023-.78 7.549-2.35 10.576-1.54 3.027-3.75 5.352-6.65 6.973-2.87 1.621-6.22 2.451-10.04 2.49zm5.62-38.027V270.4h5.92q6.51 0 10.11-4.043 3.63-4.043 3.63-11.513v-2.49c0-4.844-1.14-8.604-3.43-11.28q-3.39-4.042-9.66-4.101zm46.06 38.613c-4.3 0-7.79-1.406-10.49-4.219-2.69-2.832-4.04-6.611-4.04-11.338v-.996c0-3.144.59-5.947 1.78-8.408q1.83-3.72 5.04-5.801c2.17-1.406 4.52-2.109 7.03-2.109 4.13 0 7.33 1.357 9.61 4.072 2.29 2.715 3.43 6.602 3.43 11.66v2.256h-21.47c.08 3.125.98 5.654 2.72 7.588 1.76 1.914 3.99 2.871 6.68 2.871q2.88 0 4.86-1.172c1.33-.781 2.5-1.816 3.49-3.105l3.31 2.578c-2.65 4.082-6.64 6.123-11.95 6.123m-.68-28.418c-2.18 0-4.02.801-5.5 2.402q-2.235 2.373-2.76 6.68h15.88v-.41c-.15-2.754-.9-4.883-2.22-6.387q-1.995-2.285-5.4-2.285m37.8 19.424c0-1.465-.56-2.598-1.67-3.399-1.1-.82-3.02-1.523-5.77-2.109q-4.11-.879-6.54-2.109-2.4-1.231-3.57-2.93-1.14-1.7-1.14-4.043c0-2.598 1.09-4.795 3.28-6.592 2.2-1.797 5.02-2.695 8.44-2.695q5.385 0 8.73 2.783 3.36 2.784 3.36 7.119h-5.44c0-1.484-.64-2.763-1.91-3.838q-1.875-1.611-4.74-1.611c-1.98 0-3.52.43-4.63 1.289-1.12.859-1.67 1.982-1.67 3.369 0 1.309.51 2.295 1.55 2.959 1.03.664 2.9 1.299 5.59 1.904q4.08.91 6.6 2.168 2.52 1.26 3.72 3.047 1.23 1.758 1.23 4.307c0 2.832-1.14 5.107-3.4 6.826q-3.405 2.549-8.82 2.549c-2.54 0-4.78-.449-6.74-1.348-1.95-.898-3.48-2.148-4.6-3.75-1.09-1.621-1.64-3.369-1.64-5.244h5.42c.1 1.817.82 3.262 2.17 4.336 1.37 1.055 3.16 1.582 5.39 1.582q3.075 0 4.92-1.23c1.25-.84 1.88-1.953 1.88-3.34m21.33-6.27-3.4 3.545V275h-5.42v-45h5.42v27.217l2.9-3.487 9.87-10.429h6.59l-12.33 13.242L1592.99 275h-6.36zm28.91-24.697v7.676h5.92v4.189h-5.92v19.658c0 1.27.27 2.227.79 2.872q.795.937 2.7.937.93 0 2.58-.352V275c-1.43.391-2.82.586-4.16.586-2.43 0-4.25-.732-5.48-2.197s-1.85-3.545-1.85-6.241V247.49h-5.77v-4.189h5.77v-7.676zm10.26 23.232c0-3.105.6-5.898 1.81-8.378q1.845-3.721 5.1-5.743 3.285-2.02 7.47-2.021c4.32 0 7.8 1.494 10.46 4.482 2.68 2.989 4.01 6.963 4.01 11.924v.381c0 3.086-.59 5.859-1.78 8.32q-1.77 3.663-5.07 5.713-3.285 2.05-7.56 2.051c-4.3 0-7.78-1.494-10.46-4.482-2.66-2.989-3.98-6.944-3.98-11.866zm5.45.645q0 5.274 2.43 8.467c1.64 2.129 3.82 3.193 6.56 3.193 2.75 0 4.94-1.074 6.56-3.223q2.43-3.252 2.43-9.082 0-5.214-2.49-8.437c-1.64-2.168-3.82-3.252-6.56-3.252-2.68 0-4.83 1.064-6.47 3.193q-2.46 3.193-2.46 9.141m56.98 0c0 4.824-1.11 8.711-3.31 11.66q-3.315 4.424-8.97 4.424c-3.85 0-6.87-1.221-9.08-3.662v15.264h-5.42v-43.887h4.95l.26 3.515c2.21-2.734 5.28-4.101 9.2-4.101q5.715 0 9.03 4.306c2.22 2.872 3.34 6.866 3.34 11.983zm-5.42-.615c0-3.575-.76-6.397-2.29-8.467q-2.28-3.105-6.27-3.106-4.92 0-7.38 4.366v15.146q2.43 4.336 7.44 4.336 3.9 0 6.18-3.076c1.55-2.07 2.32-5.137 2.32-9.199"/></g><defs><linearGradient id="d" x1="293.295" x2="410.047" y1="1200.63" y2="1285.8" gradientUnits="userSpaceOnUse"><stop stop-color="#fff"/><stop offset="1" stop-color="#fff" stop-opacity="0"/></linearGradient><linearGradient id="e" x1="352.794" x2="469.545" y1="1118.88" y2="1204.04" gradientUnits="userSpaceOnUse"><stop stop-color="#fff"/><stop offset="1" stop-color="#fff" stop-opacity="0"/></linearGradient><linearGradient id="f" x1="274.823" x2="391.574" y1="1185.63" y2="1270.8" gradientUnits="userSpaceOnUse"><stop stop-color="#fff"/><stop offset="1" stop-color="#fff" stop-opacity="0"/></linearGradient><linearGradient id="g" x1="334.321" x2="451.072" y1="1103.88" y2="1189.05" gradientUnits="userSpaceOnUse"><stop stop-color="#fff"/><stop offset="1" stop-color="#fff" stop-opacity="0"/></linearGradient><linearGradient id="h" x1="330.727" x2="349.048" y1="1336.02" y2="1367.76" gradientUnits="userSpaceOnUse"><stop stop-color="#fff"/><stop offset="1" stop-color="#fff" stop-opacity="0"/></linearGradient><linearGradient id="i" x1="495.723" x2="514.043" y1="1287.12" y2="1318.87" gradientUnits="userSpaceOnUse"><stop stop-color="#fff"/><stop offset="1" stop-color="#fff" stop-opacity="0"/></linearGradient><linearGradient id="j" x1="466.287" x2="545.756" y1="1342.99" y2="1405.21" gradientUnits="userSpaceOnUse"><stop stop-color="#fff"/><stop offset="1" stop-color="#fff" stop-opacity="0"/></linearGradient><linearGradient id="k" x1="314.921" x2="338.103" y1="1271.67" y2="1284.59" gradientUnits="userSpaceOnUse"><stop stop-color="#fff"/><stop offset="1" stop-color="#fff" stop-opacity="0"/></linearGradient><linearGradient id="l" x1="773.727" x2="792.048" y1="663.023" y2="694.764" gradientUnits="userSpaceOnUse"><stop stop-color="#fff"/><stop offset="1" stop-color="#fff" stop-opacity="0"/></linearGradient><linearGradient id="m" x1="938.723" x2="957.043" y1="614.125" y2="645.865" gradientUnits="userSpaceOnUse"><stop stop-color="#fff"/><stop offset="1" stop-color="#fff" stop-opacity="0"/></linearGradient><linearGradient id="n" x1="788.836" x2="768.939" y1="681.683" y2="843.067" gradientUnits="userSpaceOnUse"><stop stop-color="#fff"/><stop offset="1" stop-color="#fff" stop-opacity="0"/></linearGradient><linearGradient id="o" x1="909.287" x2="988.756" y1="669.987" y2="732.209" gradientUnits="userSpaceOnUse"><stop stop-color="#fff"/><stop offset="1" stop-color="#fff" stop-opacity="0"/></linearGradient><linearGradient id="p" x1="956.01" x2="979.94" y1="769.868" y2="788.753" gradientUnits="userSpaceOnUse"><stop stop-color="#fff"/><stop offset="1" stop-color="#fff" stop-opacity="0"/></linearGradient><linearGradient id="q" x1="1170" x2="1194" y1="989" y2="989" gradientUnits="userSpaceOnUse"><stop stop-color="#fff" stop-opacity=".2"/><stop offset="1" stop-color="#fff" stop-opacity="0"/></linearGradient><linearGradient id="r" x1="1308.68" x2="1320.76" y1="858.999" y2="893.111" gradientUnits="userSpaceOnUse"><stop stop-color="#485BFF"/><stop offset="1" stop-color="#FF59F8"/></linearGradient><linearGradient id="s" x1="1308.68" x2="1320.76" y1="858.999" y2="893.111" gradientUnits="userSpaceOnUse"><stop stop-color="#485BFF"/><stop offset="1" stop-color="#FF59F8"/></linearGradient><linearGradient id="t" x1="1308.68" x2="1320.76" y1="858.999" y2="893.111" gradientUnits="userSpaceOnUse"><stop stop-color="#485BFF"/><stop offset="1" stop-color="#FF59F8"/></linearGradient><linearGradient id="u" x1="1302.08" x2="1362.3" y1="843" y2="917.547" gradientUnits="userSpaceOnUse"><stop stop-color="#485BFF"/><stop offset="1" stop-color="#FF59F8"/></linearGradient><clipPath id="a"><path fill="#fff" d="M0 0h1920v1348H0z"/></clipPath><clipPath id="c"><rect width="1440" height="820" x="240" y="620" fill="#fff" rx="40"/></clipPath><filter id="b" width="1504" height="884" x="212" y="612" color-interpolation-filters="sRGB" filterUnits="userSpaceOnUse"><feFlood flood-opacity="0" result="BackgroundImageFix"/><feColorMatrix in="SourceAlpha" values="0 0 0 0 0 0 0 0 0 0 0 0 0 0 0 0 0 0 127 0"/><feOffset dx="4" dy="24"/><feGaussianBlur stdDeviation="16"/><feColorMatrix values="0 0 0 0 0.534078 0 0 0 0 0.416111 0 0 0 0 0.891667 0 0 0 1 0"/><feBlend in2="BackgroundImageFix" result="effect1_dropShadow"/><feBlend in="SourceGraphic" in2="effect1_dropShadow" result="shape"/></filter></defs></svg>