<svg width="257" height="257" viewBox="0 0 257 257" fill="none" xmlns="http://www.w3.org/2000/svg">
<path d="M121.214 8.12869C123.149 5.63328 126.884 5.53455 128.949 7.92425L148.649 30.7294C150.052 32.3536 152.335 32.9012 154.322 32.09L182.223 20.7005C185.147 19.507 188.431 21.2891 189.024 24.3908L194.682 53.9908C195.085 56.0989 196.788 57.7147 198.915 58.0058L228.772 62.0925C231.901 62.5208 233.854 65.7062 232.817 68.6889L222.917 97.1523C222.212 99.1795 222.879 101.431 224.576 102.746L248.389 121.214C250.885 123.149 250.984 126.884 248.594 128.949L225.789 148.649C224.165 150.052 223.617 152.335 224.428 154.322L235.818 182.223C237.011 185.147 235.229 188.431 232.127 189.024L202.527 194.682C200.419 195.085 198.803 196.788 198.512 198.915L194.426 228.772C193.997 231.901 190.812 233.854 187.829 232.817L159.366 222.917C157.339 222.212 155.088 222.879 153.772 224.576L135.304 248.39C133.369 250.885 129.634 250.984 127.57 248.594L107.869 225.789C106.466 224.165 104.183 223.617 102.196 224.428L74.2953 235.818C71.3716 237.011 68.0874 235.229 67.4945 232.127L61.8362 202.527C61.4332 200.419 59.7297 198.804 57.6032 198.512L27.7457 194.426C24.617 193.997 22.6639 190.812 23.7013 187.829L33.601 159.366C34.3061 157.339 33.6387 155.088 31.9426 153.772L8.12865 135.304C5.63324 133.369 5.53451 129.634 7.92421 127.57L30.7294 107.869C32.3536 106.466 32.9011 104.183 32.09 102.196L20.7004 74.2953C19.507 71.3716 21.2891 68.0874 24.3908 67.4945L53.9907 61.8363C56.0989 61.4333 57.7147 59.7297 58.0057 57.6032L62.0925 27.7458C62.5207 24.6171 65.7062 22.6639 68.6888 23.7013L97.1522 33.6011C99.1794 34.3061 101.431 33.6387 102.746 31.9427L121.214 8.12869Z" fill="#FFBB4F"/>
<rect x="152.253" y="102.572" width="9.54738" height="19.0948" transform="rotate(-1.51403 152.253 102.572)" fill="white"/>
<rect x="152.253" y="102.572" width="9.54738" height="19.0948" transform="rotate(-1.51403 152.253 102.572)" fill="white"/>
<rect x="161.923" y="107.092" width="9.54738" height="14.3211" transform="rotate(-1.51403 161.923 107.092)" fill="white"/>
<rect x="161.923" y="107.092" width="9.54738" height="14.3211" transform="rotate(-1.51403 161.923 107.092)" fill="white"/>
<rect x="166.821" y="111.738" width="17.5035" height="14.3211" transform="rotate(-1.51403 166.821 111.738)" fill="white"/>
<rect x="166.821" y="111.738" width="17.5035" height="14.3211" transform="rotate(-1.51403 166.821 111.738)" fill="white"/>
<rect x="184.445" y="116.047" width="14.3211" height="14.3211" transform="rotate(-1.51403 184.445 116.047)" fill="white"/>
<rect x="184.445" y="116.047" width="14.3211" height="14.3211" transform="rotate(-1.51403 184.445 116.047)" fill="white"/>
<rect x="189.343" y="120.693" width="14.3211" height="14.3211" transform="rotate(-1.51403 189.343 120.693)" fill="white"/>
<rect x="189.343" y="120.693" width="14.3211" height="14.3211" transform="rotate(-1.51403 189.343 120.693)" fill="white"/>
<rect x="194.199" y="123.748" width="14.3211" height="11.1386" transform="rotate(-1.51403 194.199 123.748)" fill="white"/>
<rect x="194.199" y="123.748" width="14.3211" height="11.1386" transform="rotate(-1.51403 194.199 123.748)" fill="white"/>
<rect x="184.781" y="128.772" width="14.3211" height="14.3211" transform="rotate(-1.51403 184.781 128.772)" fill="white"/>
<rect x="184.781" y="128.772" width="14.3211" height="14.3211" transform="rotate(-1.51403 184.781 128.772)" fill="white"/>
<rect x="189.343" y="120.693" width="14.3211" height="17.5035" transform="rotate(-1.51403 189.343 120.693)" fill="white"/>
<rect x="189.343" y="120.693" width="14.3211" height="17.5035" transform="rotate(-1.51403 189.343 120.693)" fill="white"/>
<rect x="153.22" y="139.157" width="11.1386" height="19.0948" transform="rotate(-1.51403 153.22 139.157)" fill="white"/>
<rect x="153.22" y="139.157" width="11.1386" height="19.0948" transform="rotate(-1.51403 153.22 139.157)" fill="white"/>
<rect x="161.173" y="138.947" width="11.1386" height="14.3211" transform="rotate(-1.51403 161.173 138.947)" fill="white"/>
<rect x="161.173" y="138.947" width="11.1386" height="14.3211" transform="rotate(-1.51403 161.173 138.947)" fill="white"/>
<rect x="167.41" y="134.007" width="17.5035" height="14.3211" transform="rotate(-1.51403 167.41 134.007)" fill="white"/>
<rect x="167.41" y="134.007" width="17.5035" height="14.3211" transform="rotate(-1.51403 167.41 134.007)" fill="white"/>
<rect width="9.54738" height="19.0948" transform="matrix(-0.999651 0.0264217 0.0264217 0.999651 102.942 103.875)" fill="white"/>
<rect width="9.54738" height="19.0948" transform="matrix(-0.999651 0.0264217 0.0264217 0.999651 102.942 103.875)" fill="white"/>
<rect width="9.54738" height="14.3211" transform="matrix(-0.999651 0.0264217 0.0264217 0.999651 93.5239 108.899)" fill="white"/>
<rect width="9.54738" height="14.3211" transform="matrix(-0.999651 0.0264217 0.0264217 0.999651 93.5239 108.899)" fill="white"/>
<rect width="17.5035" height="14.3211" transform="matrix(-0.999651 0.0264217 0.0264217 0.999651 88.8783 113.798)" fill="white"/>
<rect width="17.5035" height="14.3211" transform="matrix(-0.999651 0.0264217 0.0264217 0.999651 88.8783 113.798)" fill="white"/>
<rect width="14.3211" height="14.3211" transform="matrix(-0.999651 0.0264217 0.0264217 0.999651 71.5066 119.032)" fill="white"/>
<rect width="14.3211" height="14.3211" transform="matrix(-0.999651 0.0264217 0.0264217 0.999651 71.5066 119.032)" fill="white"/>
<rect width="14.3211" height="14.3211" transform="matrix(-0.999651 0.0264217 0.0264217 0.999651 66.861 123.93)" fill="white"/>
<rect width="14.3211" height="14.3211" transform="matrix(-0.999651 0.0264217 0.0264217 0.999651 66.861 123.93)" fill="white"/>
<rect width="14.3211" height="11.1386" transform="matrix(-0.999651 0.0264217 0.0264217 0.999651 62.1729 127.238)" fill="white"/>
<rect width="14.3211" height="11.1386" transform="matrix(-0.999651 0.0264217 0.0264217 0.999651 62.1729 127.238)" fill="white"/>
<rect width="14.3211" height="14.3211" transform="matrix(-0.999651 0.0264217 0.0264217 0.999651 71.8429 131.758)" fill="white"/>
<rect width="14.3211" height="14.3211" transform="matrix(-0.999651 0.0264217 0.0264217 0.999651 71.8429 131.758)" fill="white"/>
<rect width="14.3211" height="17.5035" transform="matrix(-0.999651 0.0264217 0.0264217 0.999651 66.861 123.93)" fill="white"/>
<rect width="14.3211" height="17.5035" transform="matrix(-0.999651 0.0264217 0.0264217 0.999651 66.861 123.93)" fill="white"/>
<rect width="11.1386" height="19.0948" transform="matrix(-0.999651 0.0264217 0.0264217 0.999651 103.909 140.461)" fill="white"/>
<rect width="11.1386" height="19.0948" transform="matrix(-0.999651 0.0264217 0.0264217 0.999651 103.909 140.461)" fill="white"/>
<rect width="11.1386" height="14.3211" transform="matrix(-0.999651 0.0264217 0.0264217 0.999651 95.9556 140.671)" fill="white"/>
<rect width="11.1386" height="14.3211" transform="matrix(-0.999651 0.0264217 0.0264217 0.999651 95.9556 140.671)" fill="white"/>
<rect width="17.5035" height="14.3211" transform="matrix(-0.999651 0.0264217 0.0264217 0.999651 89.4668 136.067)" fill="white"/>
<rect width="17.5035" height="14.3211" transform="matrix(-0.999651 0.0264217 0.0264217 0.999651 89.4668 136.067)" fill="white"/>
<rect x="132.576" y="80.8069" width="19.0948" height="9.54738" transform="rotate(-1.51403 132.576 80.8069)" fill="white"/>
<rect x="132.576" y="80.8069" width="19.0948" height="9.54738" transform="rotate(-1.51403 132.576 80.8069)" fill="white"/>
<rect x="129.647" y="90.4351" width="17.5035" height="14.3211" transform="rotate(-1.51403 129.647 90.4351)" fill="white"/>
<rect x="129.647" y="90.4351" width="17.5035" height="14.3211" transform="rotate(-1.51403 129.647 90.4351)" fill="white"/>
<rect x="125.211" y="103.286" width="17.5035" height="14.3211" transform="rotate(-1.51403 125.211 103.286)" fill="white"/>
<rect x="125.211" y="103.286" width="17.5035" height="14.3211" transform="rotate(-1.51403 125.211 103.286)" fill="white"/>
<rect x="120.818" y="117.729" width="17.5035" height="14.3211" transform="rotate(-1.51403 120.818 117.729)" fill="white"/>
<rect x="120.818" y="117.729" width="17.5035" height="14.3211" transform="rotate(-1.51403 120.818 117.729)" fill="white"/>
<rect x="118.015" y="132.129" width="15.9123" height="11.1386" transform="rotate(-1.51403 118.015 132.129)" fill="white"/>
<rect x="118.015" y="132.129" width="15.9123" height="11.1386" transform="rotate(-1.51403 118.015 132.129)" fill="white"/>
<rect x="113.579" y="144.98" width="15.9123" height="11.1386" transform="rotate(-1.51403 113.579 144.98)" fill="white"/>
<rect x="113.579" y="144.98" width="15.9123" height="11.1386" transform="rotate(-1.51403 113.579 144.98)" fill="white"/>
<rect x="118.015" y="132.129" width="15.9123" height="12.7298" transform="rotate(-1.51403 118.015 132.129)" fill="white"/>
<rect x="118.015" y="132.129" width="15.9123" height="12.7298" transform="rotate(-1.51403 118.015 132.129)" fill="white"/>
<rect x="113.579" y="144.98" width="17.5035" height="12.7298" transform="rotate(-1.51403 113.579 144.98)" fill="white"/>
<rect x="113.579" y="144.98" width="17.5035" height="12.7298" transform="rotate(-1.51403 113.579 144.98)" fill="white"/>
<rect x="109.059" y="154.651" width="17.5035" height="17.5035" transform="rotate(-1.51403 109.059 154.651)" fill="white"/>
<rect x="109.059" y="154.651" width="17.5035" height="17.5035" transform="rotate(-1.51403 109.059 154.651)" fill="white"/>
<rect x="104.624" y="167.502" width="17.5035" height="9.54738" transform="rotate(-1.51403 104.624 167.502)" fill="white"/>
<rect x="104.624" y="167.502" width="17.5035" height="9.54738" transform="rotate(-1.51403 104.624 167.502)" fill="white"/>
</svg>
